<svg width="58" height="58" viewBox="0 0 58 58" fill="none" xmlns="http://www.w3.org/2000/svg">
<mask id="path-1-inside-1_32_12" fill="white">
<path d="M57.1188 21.9054C55.4238 15.1874 51.3796 9.29821 45.7182 5.30396C40.0568 1.30972 33.1525 -0.525614 26.255 0.130204C19.3576 0.786022 12.9228 3.88965 8.11566 8.87925C3.30849 13.8689 0.446588 20.4147 0.0480221 27.3318C-0.350544 34.2489 1.74057 41.0801 5.94282 46.5888C10.1451 52.0976 16.1807 55.9197 22.9572 57.3634C29.7337 58.8072 36.8032 57.777 42.8858 54.4595C48.9685 51.1419 53.6624 45.7562 56.1178 39.2773L43.0127 34.3106C41.7439 37.6585 39.3184 40.4414 36.1753 42.1557C33.0321 43.87 29.3791 44.4023 25.8775 43.6563C22.3759 42.9103 19.257 40.9353 17.0856 38.0887C14.9142 35.2422 13.8336 31.7123 14.0396 28.138C14.2455 24.5637 15.7244 21.1812 18.2084 18.603C20.6924 16.0247 24.0174 14.4209 27.5816 14.082C31.1457 13.7431 34.7134 14.6915 37.6388 16.7555C40.5642 18.8194 42.654 21.8626 43.5299 25.334L57.1188 21.9054Z"/>
</mask>
<path d="M57.1188 21.9054C55.4238 15.1874 51.3796 9.29821 45.7182 5.30396C40.0568 1.30972 33.1525 -0.525614 26.255 0.130204C19.3576 0.786022 12.9228 3.88965 8.11566 8.87925C3.30849 13.8689 0.446588 20.4147 0.0480221 27.3318C-0.350544 34.2489 1.74057 41.0801 5.94282 46.5888C10.1451 52.0976 16.1807 55.9197 22.9572 57.3634C29.7337 58.8072 36.8032 57.777 42.8858 54.4595C48.9685 51.1419 53.6624 45.7562 56.1178 39.2773L43.0127 34.3106C41.7439 37.6585 39.3184 40.4414 36.1753 42.1557C33.0321 43.87 29.3791 44.4023 25.8775 43.6563C22.3759 42.9103 19.257 40.9353 17.0856 38.0887C14.9142 35.2422 13.8336 31.7123 14.0396 28.138C14.2455 24.5637 15.7244 21.1812 18.2084 18.603C20.6924 16.0247 24.0174 14.4209 27.5816 14.082C31.1457 13.7431 34.7134 14.6915 37.6388 16.7555C40.5642 18.8194 42.654 21.8626 43.5299 25.334L57.1188 21.9054Z" stroke="#FEF9EC" stroke-width="10" mask="url(#path-1-inside-1_32_12)"/>
<path d="M21.7713 36H18.4759L23.4972 21.4545H27.4602L32.4744 36H29.179L25.5355 24.7784H25.4219L21.7713 36ZM21.5653 30.2827H29.3494V32.6832H21.5653V30.2827ZM34.2269 36V25.0909H37.2525V36H34.2269ZM35.7468 23.6847C35.297 23.6847 34.9111 23.5355 34.5891 23.2372C34.2719 22.9342 34.1133 22.572 34.1133 22.1506C34.1133 21.7339 34.2719 21.3764 34.5891 21.0781C34.9111 20.7751 35.297 20.6236 35.7468 20.6236C36.1966 20.6236 36.5801 20.7751 36.8974 21.0781C37.2193 21.3764 37.3803 21.7339 37.3803 22.1506C37.3803 22.572 37.2193 22.9342 36.8974 23.2372C36.5801 23.5355 36.1966 23.6847 35.7468 23.6847Z" fill="#FEF9EC"/>
</svg>
