<?xml version="1.0" standalone="no"?>
<!DOCTYPE svg PUBLIC "-//W3C//DTD SVG 20010904//EN"
 "http://www.w3.org/TR/2001/REC-SVG-20010904/DTD/svg10.dtd">
<svg version="1.0" xmlns="http://www.w3.org/2000/svg"
 width="1600.000000pt" height="1600.000000pt" viewBox="0 0 1600.000000 1600.000000"
 preserveAspectRatio="xMidYMid meet">

<g transform="translate(0.000000,1600.000000) scale(0.100000,-0.100000)"
fill="#000000" stroke="none">
<path d="M8745 13606 c-11 -7 -67 -40 -125 -74 -58 -33 -204 -117 -325 -187
-121 -70 -276 -160 -345 -200 -69 -39 -168 -97 -220 -127 -143 -83 -567 -327
-637 -367 -145 -83 -700 -404 -980 -567 -54 -32 -127 -74 -163 -94 -103 -58
-461 -264 -615 -354 -77 -45 -183 -106 -235 -135 -52 -30 -111 -64 -130 -76
-19 -12 -179 -104 -355 -205 -176 -101 -324 -187 -328 -191 -9 -7 52 -45 196
-123 38 -21 155 -87 260 -148 237 -137 239 -137 312 -178 33 -18 67 -39 75
-45 8 -7 40 -26 70 -42 30 -17 111 -63 180 -103 69 -40 141 -82 160 -93 19
-10 40 -23 45 -27 6 -4 42 -24 80 -45 39 -21 77 -43 85 -50 8 -7 40 -25 70
-42 30 -16 116 -64 190 -107 158 -92 147 -85 365 -211 94 -54 188 -108 210
-120 22 -13 81 -47 130 -76 50 -29 118 -68 152 -88 197 -114 270 -156 288
-165 11 -6 43 -25 70 -42 28 -17 77 -46 110 -64 33 -18 65 -36 70 -40 6 -5 30
-19 55 -32 25 -14 90 -51 145 -83 55 -32 128 -75 162 -94 35 -20 172 -99 305
-176 285 -165 327 -189 393 -225 28 -15 80 -46 118 -69 37 -22 70 -41 73 -41
3 0 27 -14 52 -31 25 -17 55 -35 66 -40 12 -5 35 -18 51 -28 34 -20 212 -124
265 -154 19 -10 92 -52 162 -93 70 -41 132 -74 138 -74 5 0 10 -4 10 -10 0 -5
5 -10 10 -10 6 0 34 -15 63 -33 29 -18 104 -62 167 -97 136 -77 121 -68 262
-151 62 -37 131 -77 153 -89 22 -12 101 -58 176 -101 75 -44 142 -79 148 -79
12 0 117 58 191 105 39 26 106 64 165 96 22 12 92 52 155 89 63 37 138 80 165
95 83 45 495 285 562 326 34 22 67 39 71 39 5 0 20 8 33 18 13 11 49 32 79 49
30 16 116 65 190 108 74 43 155 89 180 103 25 14 61 35 80 47 19 12 109 64
200 115 91 51 181 103 200 115 34 23 67 41 185 108 33 18 143 82 245 141 102
59 192 111 200 116 8 5 53 31 100 58 47 27 117 67 155 89 216 125 326 189 375
218 30 18 75 44 100 57 25 14 98 56 163 94 65 38 126 74 135 79 10 6 65 37
122 69 58 33 125 71 150 86 25 15 86 49 135 76 97 51 165 92 165 98 0 2 -30
21 -67 42 -38 21 -192 109 -343 197 -151 88 -327 189 -390 224 -63 36 -119 69
-125 73 -5 4 -116 68 -245 142 -129 75 -334 193 -455 263 -121 71 -323 187
-450 260 -266 153 -448 258 -590 340 -55 32 -129 75 -165 95 -36 20 -180 103
-320 185 -401 233 -750 434 -1225 707 -110 63 -299 173 -420 243 -121 71 -308
178 -415 240 -156 90 -497 286 -835 482 -45 26 -61 27 -90 9z m353 -535 c48
-18 169 -83 252 -135 19 -13 73 -44 120 -71 506 -288 562 -324 573 -365 8 -31
-1 -37 -338 -230 -16 -9 -133 -77 -260 -150 -126 -73 -327 -188 -445 -256
-280 -162 -268 -161 -499 -26 -64 38 -213 124 -331 192 -118 68 -268 155 -333
193 -122 71 -151 102 -131 135 9 14 273 176 324 199 8 4 47 26 85 49 39 23
160 93 270 157 110 63 272 156 360 207 88 51 171 99 185 106 35 20 107 17 168
-5z m-1785 -1030 c28 -10 86 -39 127 -64 41 -25 102 -61 135 -80 276 -154 526
-300 610 -356 76 -50 93 -83 58 -113 -15 -13 -218 -131 -513 -298 -36 -20 -92
-53 -125 -72 -33 -19 -105 -61 -160 -93 -55 -32 -174 -101 -265 -154 l-165
-96 -70 0 c-63 1 -77 4 -140 41 -186 109 -537 311 -595 343 -134 76 -260 152
-275 167 -8 9 -15 27 -15 42 0 28 20 45 108 94 109 60 273 155 319 185 28 18
56 33 61 33 5 0 20 8 33 18 13 11 49 32 79 49 30 16 116 65 190 108 74 43 160
92 190 108 30 17 78 45 105 62 155 99 208 112 308 76z m4697 -666 c8 -6 81
-49 162 -95 97 -56 144 -88 141 -97 -7 -18 -18 -16 -61 11 -45 28 -195 116
-320 186 -72 41 -90 55 -82 65 9 11 25 6 78 -22 37 -20 74 -41 82 -48z m103
-160 c64 -38 116 -74 114 -80 -7 -17 -36 -6 -131 50 -50 30 -127 75 -171 100
-178 102 -177 101 -156 114 13 8 59 -16 344 -184z m-370 118 c17 -10 36 -22
42 -26 5 -4 80 -48 165 -97 201 -116 190 -109 190 -120 0 -22 -39 -6 -174 72
-77 45 -152 88 -166 96 -83 45 -125 71 -128 81 -6 17 36 13 71 -6z m-83 -53
c14 -10 45 -29 70 -42 197 -111 338 -197 333 -202 -14 -13 -44 -4 -106 32 -36
20 -135 77 -220 127 -114 66 -153 93 -145 102 11 13 31 8 68 -17z m-83 -41
c21 -12 58 -33 82 -47 74 -41 316 -183 320 -188 3 -2 0 -9 -6 -15 -12 -12 -38
1 -296 153 -92 55 -165 104 -162 109 9 14 20 11 62 -12z m-84 -50 c23 -12 74
-41 113 -65 39 -24 76 -44 82 -44 5 0 12 -3 14 -8 2 -4 41 -29 88 -56 104 -59
120 -73 97 -82 -10 -3 -44 11 -89 38 -40 24 -80 47 -88 51 -8 5 -24 13 -35 20
-23 14 -76 44 -184 107 -53 31 -70 45 -60 51 18 11 14 12 62 -12z m-50 -71
c40 -23 86 -50 102 -59 59 -32 131 -74 160 -94 17 -11 50 -29 73 -40 46 -22
51 -31 23 -40 -13 -4 -38 6 -73 28 -29 19 -87 53 -128 76 -41 23 -82 46 -90
51 -78 49 -152 90 -160 90 -6 0 -10 7 -10 15 0 25 27 17 103 -27z m43 -124
c260 -151 251 -144 232 -155 -11 -6 -52 13 -139 62 -68 39 -128 75 -134 79 -5
4 -37 22 -70 40 -77 43 -135 79 -135 85 0 22 77 -12 246 -111z m1094 51 c37
-24 90 -55 117 -69 26 -14 75 -42 108 -61 33 -19 75 -43 93 -52 35 -18 40 -30
17 -39 -9 -4 -55 18 -108 49 -103 61 -238 140 -310 181 -48 28 -55 53 -11 42
14 -4 56 -26 94 -51z m-1304 -17 c38 -23 98 -58 134 -78 246 -139 255 -145
226 -156 -8 -3 -45 12 -81 33 -76 43 -69 39 -195 114 -52 31 -117 68 -144 84
-36 20 -45 30 -35 36 20 13 21 13 95 -33z m1183 -10 c31 -18 64 -37 73 -43 9
-5 82 -48 163 -94 80 -47 145 -88 145 -93 0 -24 -35 -13 -119 37 -52 31 -150
88 -220 127 -148 84 -135 74 -126 87 10 17 23 13 84 -21z m-1191 -84 c225
-132 245 -144 270 -156 24 -12 30 -38 9 -38 -12 0 -362 199 -429 244 -26 17
-29 36 -7 36 5 0 76 -39 157 -86z m1131 17 c253 -144 346 -201 349 -215 6 -26
-13 -19 -141 55 -67 40 -163 96 -214 125 -51 30 -97 54 -102 54 -12 0 -14 13
-4 23 12 12 24 8 112 -42z m-1303 -17 c32 -20 82 -49 109 -64 135 -75 269
-157 273 -168 8 -26 -32 -9 -160 64 -73 42 -147 85 -165 95 -17 10 -50 29 -72
43 -22 15 -45 26 -50 26 -13 0 -32 26 -24 33 12 13 29 7 89 -29z m1193 -18
c31 -19 81 -48 111 -64 46 -24 255 -148 269 -159 3 -2 0 -8 -6 -14 -8 -8 -29
-2 -75 22 -34 19 -65 37 -68 40 -6 6 -150 89 -156 89 -2 0 -21 12 -43 28 -21
15 -57 36 -79 46 -42 19 -57 46 -26 46 9 0 42 -15 73 -34z m-1266 -38 c40 -22
88 -51 107 -64 19 -12 58 -35 85 -51 28 -15 78 -44 113 -63 60 -34 75 -57 35
-53 -12 1 -76 36 -144 76 -68 41 -163 96 -211 123 -82 46 -109 74 -72 74 8 0
48 -19 87 -42z m1284 -59 c87 -50 169 -99 183 -108 14 -10 42 -25 62 -34 44
-21 55 -35 34 -43 -8 -3 -41 9 -73 27 -67 37 -386 221 -392 225 -5 4 10 24 19
24 4 0 79 -41 167 -91z m-102 -40 c251 -146 299 -176 303 -188 9 -26 -38 -6
-172 71 -77 45 -176 102 -218 126 -76 43 -85 51 -71 65 10 11 10 11 158 -74z
m-168 -4 c32 -19 63 -35 70 -35 6 0 13 -4 15 -8 2 -5 69 -46 150 -93 81 -46
148 -88 148 -92 0 -24 -39 -13 -112 31 -171 103 -256 152 -261 152 -4 0 -22
11 -42 24 -20 14 -41 26 -47 28 -13 5 -2 28 12 28 5 0 35 -16 67 -35z m-38
-77 c58 -34 135 -78 171 -99 36 -21 89 -51 118 -66 53 -28 63 -40 38 -49 -15
-6 -41 8 -179 90 -43 25 -80 46 -82 46 -3 0 -45 25 -95 55 -50 30 -95 55 -100
55 -11 0 -13 14 -3 23 12 13 25 7 132 -55z m-1277 11 c40 -23 89 -52 108 -64
42 -26 158 -94 220 -128 25 -14 44 -29 43 -34 -4 -18 -33 -12 -89 20 -171 99
-379 220 -383 222 -5 6 9 25 19 25 4 0 41 -19 82 -41z m2593 -87 c224 -129
237 -138 212 -148 -11 -4 -48 12 -99 42 -93 55 -117 69 -180 103 -109 59 -189
114 -177 122 18 10 24 8 244 -119z m-1361 15 c78 -46 178 -105 224 -131 45
-26 82 -52 82 -57 0 -19 -43 -7 -96 26 -30 19 -56 35 -58 35 -2 0 -34 18 -71
41 -75 46 -114 68 -195 112 -30 16 -57 32 -60 34 -4 4 20 22 29 23 2 0 68 -37
145 -83z m-1227 -33 c269 -154 286 -165 273 -178 -12 -12 -2 -18 -255 128
-216 125 -217 125 -210 136 4 6 10 10 15 10 5 0 85 -43 177 -96z m2330 67 c26
-15 80 -46 118 -68 224 -129 284 -166 279 -174 -10 -18 -34 -8 -173 74 -172
100 -226 131 -268 153 -33 16 -39 25 -26 37 11 11 19 8 70 -22z m-1124 -122
c263 -151 256 -146 233 -155 -10 -4 -33 2 -54 13 -57 32 -407 234 -411 238 -4
5 8 25 15 25 3 0 101 -55 217 -121z m-1254 -16 c102 -58 198 -115 214 -125 29
-21 35 -38 13 -38 -13 0 -252 132 -306 170 -14 9 -56 34 -93 55 -49 27 -65 40
-55 46 18 12 16 13 227 -108z m2312 76 c245 -138 369 -214 369 -226 0 -20 -31
-15 -69 11 -20 12 -108 65 -196 116 -220 127 -210 121 -194 131 8 5 15 9 15 9
1 0 34 -19 75 -41z m-1132 -115 c119 -70 220 -130 225 -135 16 -14 -25 -23
-47 -10 -11 7 -36 22 -56 33 -20 11 -67 39 -106 62 -38 22 -81 47 -95 54 -14
7 -43 24 -65 37 -22 13 -52 31 -67 40 -16 8 -28 19 -28 24 0 8 11 21 18 21 2
0 102 -57 221 -126z m-1325 24 c77 -46 148 -87 158 -93 107 -63 129 -75 138
-75 15 0 12 -20 -4 -26 -18 -7 -56 14 -321 173 -11 6 -38 21 -60 33 -22 11
-49 26 -60 33 -11 6 -22 13 -24 14 -7 4 11 23 21 23 6 0 74 -37 152 -82z
m2364 46 c37 -20 101 -57 142 -83 72 -44 105 -62 198 -112 23 -13 42 -27 42
-31 0 -24 -37 -15 -104 26 -42 25 -80 46 -86 46 -5 0 -10 4 -10 9 0 5 -6 11
-13 13 -33 8 -257 143 -257 155 0 20 16 16 88 -23z m-1228 -61 c58 -34 128
-73 155 -89 99 -55 169 -100 173 -112 6 -19 -30 -14 -68 10 -19 11 -116 68
-215 125 -99 58 -182 107 -185 109 -5 6 22 24 30 20 3 -2 52 -30 110 -63z
m-1324 38 c5 -5 30 -20 55 -34 132 -72 359 -211 359 -220 0 -5 -10 -7 -23 -5
-30 6 -447 247 -447 259 0 12 43 12 56 0z m2466 -16 c20 -14 39 -25 41 -25 5
0 176 -98 291 -166 27 -16 51 -35 54 -42 8 -25 -36 -9 -130 46 -53 31 -151 88
-217 127 -67 38 -121 73 -121 77 0 17 47 7 82 -17z m-2361 -147 c126 -72 229
-135 229 -140 0 -17 -48 -7 -91 20 -75 47 -83 51 -139 82 -30 17 -68 38 -85
48 -123 72 -160 94 -164 97 -4 5 9 25 16 25 3 0 108 -59 234 -132z m2351 56
c73 -42 144 -84 158 -93 14 -9 54 -32 89 -51 35 -19 66 -41 69 -48 8 -24 -34
-11 -113 34 -75 43 -218 126 -319 184 -23 14 -41 31 -39 38 3 6 9 12 13 12 5
0 69 -34 142 -76z m-2586 -19 c41 -25 78 -45 80 -45 2 0 21 -11 42 -24 20 -13
85 -52 145 -86 59 -35 107 -67 107 -71 0 -21 -42 -5 -150 57 -63 37 -135 78
-160 92 -25 13 -56 33 -70 42 -14 9 -42 25 -63 35 -30 14 -35 20 -26 31 6 8
13 14 15 14 2 0 38 -20 80 -45z m2508 -37 c70 -40 139 -80 154 -88 15 -8 51
-30 80 -48 29 -17 57 -32 62 -32 6 0 10 -7 10 -15 0 -8 -7 -15 -15 -15 -19 0
-455 252 -455 263 0 20 49 0 164 -65z m-2440 -101 c115 -67 211 -128 214 -134
7 -22 -29 -14 -80 17 -26 17 -51 30 -53 30 -3 0 -38 19 -78 43 -168 101 -223
132 -239 139 -10 4 -18 12 -18 18 0 27 62 0 254 -113z m1111 41 c28 -17 79
-46 115 -66 36 -19 72 -40 80 -47 8 -7 39 -25 67 -41 29 -16 53 -32 53 -36 0
-22 -57 0 -169 66 -69 40 -142 82 -161 93 -59 34 -145 85 -150 90 -2 2 2 8 10
13 14 8 52 -9 155 -72z m1250 6 c72 -41 153 -87 180 -102 28 -15 52 -29 55
-32 3 -3 19 -13 35 -22 32 -18 36 -31 12 -36 -11 -2 -264 138 -357 198 -8 6
-32 18 -52 27 -21 10 -40 23 -42 30 -12 30 47 8 169 -63z m1235 -29 c91 -52
172 -100 180 -105 8 -5 32 -19 53 -30 20 -11 37 -25 37 -30 0 -24 -50 -4 -173
68 -73 43 -169 100 -214 126 -46 26 -83 52 -83 57 0 23 47 2 200 -86z m-3768
-7 c68 -39 134 -78 148 -87 29 -18 115 -66 148 -83 25 -13 28 -23 8 -31 -8 -3
-54 18 -103 46 -48 29 -150 88 -225 131 -76 43 -138 82 -138 87 0 22 48 4 162
-63z m2371 42 c26 -16 50 -30 53 -30 2 0 46 -25 96 -55 50 -30 93 -55 96 -55
4 0 131 -78 141 -87 3 -2 0 -8 -6 -14 -11 -11 -49 6 -183 88 -41 25 -93 55
-115 68 -112 63 -165 97 -165 105 0 19 36 10 83 -20z m-1251 -16 c34 -20 77
-45 93 -55 17 -10 48 -28 70 -40 100 -54 225 -131 225 -139 0 -12 -26 -20 -36
-10 -5 4 -29 18 -54 32 -41 22 -313 180 -369 215 -19 12 -21 17 -10 24 8 5 15
9 16 9 0 0 30 -16 65 -36z m2546 -61 c92 -53 195 -112 230 -130 58 -32 72 -53
35 -53 -14 0 -186 94 -298 164 -27 17 -66 40 -86 50 -54 28 -72 44 -64 55 3 6
9 11 11 11 3 0 81 -44 172 -97z m-3772 -1 c54 -32 121 -72 148 -88 28 -16 79
-45 115 -65 36 -20 67 -41 68 -46 10 -28 -34 -16 -113 31 -49 29 -149 88 -221
131 -73 42 -133 81 -133 86 0 21 42 5 136 -49z m2402 24 c77 -46 287 -168 339
-197 24 -13 43 -27 43 -30 0 -12 -32 -19 -44 -10 -9 7 -260 154 -366 213 -44
25 -60 38 -60 49 0 18 33 8 88 -25z m-1299 11 c14 -12 164 -99 281 -165 76
-42 140 -84 140 -92 0 -5 -4 -11 -9 -14 -7 -4 -438 238 -457 257 -8 8 5 27 18
27 6 0 19 -6 27 -13z m2601 -92 c63 -37 150 -88 193 -112 75 -43 94 -63 60
-63 -20 0 -52 18 -253 135 -74 43 -152 87 -172 98 -39 20 -47 32 -25 40 15 5
48 -12 197 -98z m-1381 28 c104 -62 126 -74 219 -129 51 -30 96 -54 100 -54 4
0 18 -9 32 -20 19 -14 22 -22 14 -30 -9 -9 -32 0 -90 34 -44 25 -148 85 -231
132 -117 67 -150 90 -142 100 12 15 24 11 98 -33z m-2459 7 c25 -16 72 -43
104 -61 33 -17 76 -41 95 -54 20 -12 71 -41 114 -65 42 -24 77 -47 77 -51 0
-24 -44 -8 -162 60 -73 42 -140 80 -148 84 -54 27 -170 101 -170 109 0 17 47
5 90 -22z m3720 -65 c30 -17 110 -64 178 -104 67 -40 122 -76 122 -81 0 -18
-28 -10 -87 24 -422 242 -393 223 -374 235 15 10 37 -1 161 -74z m-2426 -11
c83 -48 174 -102 203 -120 28 -19 56 -34 62 -34 6 0 11 -7 11 -15 0 -33 -2
-32 -333 163 -70 42 -130 79 -133 84 -17 28 59 -3 190 -78z m1196 -50 c58 -34
121 -70 140 -81 105 -57 133 -83 93 -83 -16 0 -36 10 -138 70 -16 10 -92 54
-168 98 -76 44 -142 83 -145 87 -4 3 0 10 8 15 15 9 21 6 210 -106z m-2545 60
c44 -26 92 -55 107 -65 15 -11 29 -19 32 -19 3 0 39 -20 79 -45 41 -25 78 -45
82 -45 15 0 51 -36 48 -47 -5 -15 -22 -9 -111 44 -41 24 -75 43 -77 43 -2 0
-50 28 -107 62 -56 33 -116 68 -132 77 -16 10 -31 22 -34 29 -8 24 35 11 113
-34z m1223 -25 c59 -34 158 -91 219 -126 62 -35 115 -68 118 -73 10 -17 -36
-22 -54 -6 -10 9 -21 16 -25 16 -4 0 -12 5 -19 10 -7 6 -68 43 -137 82 -212
120 -240 138 -240 149 0 20 36 6 138 -52z m2384 36 c20 -14 39 -25 42 -25 3 0
50 -26 103 -58 54 -32 133 -78 175 -103 80 -45 88 -53 64 -62 -15 -6 -24 -2
-161 78 -55 32 -113 65 -130 74 -16 9 -32 19 -35 23 -3 3 -34 22 -70 41 -35
20 -66 40 -68 46 -7 20 43 11 80 -14z m-2499 -67 c40 -22 88 -51 107 -63 19
-12 83 -50 143 -85 59 -34 107 -66 107 -70 0 -25 -30 -13 -156 61 -77 45 -157
91 -179 103 -88 48 -135 78 -135 87 0 20 45 7 113 -33z m2410 18 c23 -13 83
-47 132 -76 50 -28 122 -70 160 -92 101 -57 111 -66 97 -80 -10 -10 -16 -10
-30 -1 -9 7 -53 33 -97 58 -217 124 -329 192 -333 203 -6 19 26 14 71 -12z
m-13 -91 c36 -21 90 -51 120 -68 30 -16 66 -38 80 -47 14 -9 48 -29 77 -45 34
-18 50 -32 46 -41 -8 -21 -16 -18 -95 30 -40 24 -142 83 -225 131 -84 48 -153
91 -153 96 0 16 26 16 55 -1 17 -10 59 -35 95 -55z m-2496 29 c33 -19 68 -40
76 -45 8 -5 40 -23 70 -39 30 -17 84 -49 120 -70 36 -22 75 -44 88 -50 25 -11
29 -25 8 -33 -14 -6 -22 -1 -231 122 -38 22 -107 62 -152 88 -76 43 -94 63
-56 63 8 0 43 -16 77 -36z m-11 -95 c45 -26 107 -61 137 -77 30 -16 81 -45
113 -64 47 -29 55 -37 43 -47 -11 -10 -35 1 -123 52 -59 35 -161 94 -225 132
-65 37 -118 71 -118 76 0 17 27 15 58 -3 18 -11 70 -42 115 -69z m2467 -12
c52 -30 111 -64 130 -74 120 -67 150 -86 150 -94 0 -27 -83 13 -331 160 -19
11 -60 35 -92 52 -52 29 -57 34 -42 45 14 11 23 9 54 -10 20 -13 79 -48 131
-79z m-1323 37 c133 -79 185 -109 275 -160 82 -46 105 -72 62 -67 -11 1 -82
39 -159 84 -77 45 -175 102 -218 126 -70 40 -89 63 -52 63 8 0 49 -21 92 -46z
m-1309 -16 c31 -17 73 -40 92 -51 19 -10 42 -24 50 -31 8 -7 26 -17 40 -24 14
-6 48 -25 75 -42 28 -17 69 -40 93 -52 23 -12 42 -26 42 -30 0 -25 -39 -12
-151 53 -68 39 -160 92 -204 117 -119 67 -126 72 -120 82 10 16 22 12 83 -22z
m2509 -36 c280 -162 323 -187 323 -195 0 -13 -34 -21 -38 -9 -2 7 -8 12 -13
12 -5 0 -54 27 -110 60 -55 33 -102 60 -104 60 -2 0 -38 20 -79 45 -42 25 -80
45 -84 45 -16 1 -44 29 -37 39 10 18 19 14 142 -57z m-1281 -2 c49 -28 96 -55
104 -60 8 -4 62 -36 120 -69 145 -84 137 -78 123 -92 -9 -9 -21 -6 -50 11 -37
22 -89 51 -163 93 -93 51 -250 151 -250 159 0 17 30 6 116 -42z m-1283 -27
c45 -25 105 -61 134 -80 28 -18 60 -36 70 -41 48 -19 163 -94 158 -103 -4 -5
-12 -9 -18 -9 -7 0 -96 48 -198 108 -101 59 -201 116 -222 127 -38 20 -50 45
-22 45 9 0 53 -21 98 -47z m2460 -10 c56 -32 109 -61 117 -66 64 -32 224 -134
228 -144 8 -27 -33 -11 -156 61 -70 40 -145 84 -167 96 -118 68 -155 92 -150
101 10 16 24 10 128 -48z m-1231 -29 c114 -67 206 -120 286 -166 35 -21 40
-27 29 -37 -12 -9 -35 0 -113 46 -55 31 -108 62 -119 68 -97 53 -235 139 -235
146 0 22 46 4 152 -57z m-1258 -45 c77 -45 177 -102 221 -127 44 -25 82 -47
84 -49 3 -2 -1 -9 -8 -16 -9 -9 -18 -8 -42 6 -17 9 -36 14 -41 10 -7 -3 -8 -1
-4 6 4 6 0 14 -11 18 -10 3 -54 27 -98 53 -44 26 -124 73 -178 104 -85 51
-111 76 -75 76 6 0 74 -37 152 -81z m2404 25 c53 -31 102 -60 107 -64 6 -4 30
-19 55 -32 56 -31 174 -100 179 -105 3 -2 0 -8 -6 -14 -7 -7 -22 -4 -49 8 -21
10 -41 21 -44 24 -3 4 -32 21 -65 40 -33 18 -89 51 -125 74 -36 22 -91 54
-122 70 -55 29 -76 55 -43 55 8 0 59 -25 113 -56z m-1205 -46 c55 -32 101 -58
103 -58 2 0 34 -19 71 -43 38 -23 80 -49 96 -56 32 -17 35 -31 6 -31 -18 0
-42 12 -134 67 -11 7 -27 15 -35 19 -8 4 -43 25 -78 46 -34 21 -64 38 -66 38
-4 0 -138 80 -146 87 -2 2 2 8 10 13 16 10 33 2 173 -82z m-1373 22 c28 -16
54 -30 57 -30 4 0 14 -6 22 -14 9 -7 45 -29 81 -48 36 -20 88 -50 115 -66 28
-17 68 -41 89 -53 34 -18 37 -23 22 -31 -14 -8 -49 8 -164 75 -270 155 -311
181 -306 189 9 15 32 9 84 -22z m2410 21 c0 -5 8 -11 18 -14 17 -6 32 -14 249
-141 65 -38 128 -74 140 -80 13 -6 23 -14 23 -17 0 -26 -54 -4 -222 93 -106
61 -202 116 -213 122 -39 22 -45 27 -40 37 8 12 45 12 45 0z m-1124 -81 c75
-44 138 -80 141 -80 2 0 27 -15 56 -33 29 -18 64 -39 80 -46 29 -15 37 -41 12
-41 -8 0 -75 35 -147 78 -73 43 -175 103 -225 132 -60 35 -88 57 -80 62 19 12
19 12 163 -72z m-178 5 c20 -14 40 -25 44 -25 3 0 46 -24 95 -53 48 -30 125
-75 170 -101 90 -52 100 -61 78 -69 -16 -7 -54 12 -215 109 -143 85 -188 111
-220 126 -34 16 -33 15 -25 27 10 17 33 13 73 -14z m-86 -50 c20 -14 40 -25
43 -25 3 0 22 -11 43 -23 72 -46 242 -145 290 -169 12 -6 22 -15 22 -20 0 -27
-43 -9 -189 77 -90 52 -165 95 -166 95 -15 0 -124 74 -119 81 9 16 38 10 76
-16z m-59 -65 c36 -22 70 -40 76 -40 5 0 11 -4 13 -8 3 -8 215 -132 226 -132
4 0 18 -9 32 -20 18 -14 22 -22 14 -30 -12 -12 -46 4 -164 76 -19 12 -51 30
-70 41 -110 59 -230 136 -225 144 11 16 30 10 98 -31z m1192 -6 c39 -20 77
-42 86 -50 8 -8 18 -14 22 -14 4 0 52 -27 107 -60 55 -33 104 -60 108 -60 4 0
21 -11 37 -24 25 -20 27 -26 14 -31 -17 -6 -74 22 -229 115 -52 31 -128 76
-168 99 -40 23 -70 46 -67 52 9 14 15 12 90 -27z m-1210 -70 c66 -39 167 -99
225 -132 80 -47 100 -63 86 -68 -19 -7 -44 4 -137 58 -30 18 -117 68 -192 112
-75 43 -137 82 -137 85 0 12 13 22 25 19 5 -2 64 -35 130 -74z m1097 38 c14
-9 73 -44 130 -77 134 -78 152 -88 221 -126 51 -28 75 -59 46 -59 -12 0 -128
64 -302 166 -65 38 -127 73 -138 79 -10 5 -19 15 -19 22 0 18 29 15 62 -5z
m-1202 -78 c63 -37 129 -74 145 -84 17 -10 59 -34 95 -54 73 -42 97 -62 87
-73 -10 -10 -127 51 -292 151 -38 24 -90 54 -115 67 -67 35 -74 41 -58 50 19
12 13 15 138 -57z m1140 13 c30 -18 80 -47 110 -64 30 -16 78 -44 106 -61 28
-18 56 -32 62 -32 6 0 12 -4 14 -8 2 -4 25 -20 51 -36 36 -21 46 -31 38 -39
-13 -13 -39 -1 -151 67 -36 21 -85 50 -110 64 -25 14 -57 32 -72 41 -14 9 -51
31 -82 49 -31 18 -56 37 -56 42 0 19 35 10 90 -23z m-1226 -62 c60 -36 110
-65 112 -65 2 0 43 -25 93 -55 50 -30 94 -55 99 -55 5 0 15 -7 22 -15 10 -12
9 -16 -3 -21 -16 -6 -96 33 -197 97 -14 9 -80 49 -148 88 -108 63 -138 91 -99
91 7 0 61 -29 121 -65z m1209 -27 c131 -78 169 -100 260 -149 31 -18 57 -36
57 -41 0 -14 -29 -21 -43 -10 -12 9 -318 187 -389 225 -39 21 -51 47 -22 47 8
0 70 -33 137 -72z m-1354 11 c31 -18 122 -71 203 -118 81 -47 157 -90 168 -96
24 -11 26 -23 6 -31 -8 -3 -36 7 -63 23 -26 15 -60 35 -74 43 -219 125 -319
187 -319 198 0 19 18 15 79 -19z m1179 3 c15 -11 52 -32 82 -49 30 -16 111
-63 180 -105 69 -41 133 -77 143 -81 20 -8 14 -27 -9 -27 -11 0 -436 240 -453
255 -6 6 10 25 21 25 5 0 22 -8 36 -18z m-102 -41 c5 -4 34 -22 64 -38 82 -44
354 -204 364 -214 6 -5 3 -11 -7 -15 -10 -3 -46 11 -92 38 -42 23 -95 54 -118
67 -45 25 -196 114 -236 139 -19 11 -21 16 -10 23 18 11 23 11 35 0z m58 -132
c88 -51 185 -107 214 -125 29 -19 57 -34 62 -34 6 0 10 -7 10 -15 0 -25 -29
-17 -107 30 -40 25 -76 45 -78 45 -3 0 -26 13 -52 28 -27 16 -88 53 -138 82
-49 29 -92 54 -94 56 -4 4 9 24 16 24 3 0 78 -41 167 -91z m-134 -22 c47 -27
139 -81 205 -119 138 -80 145 -85 121 -94 -11 -4 -71 25 -179 86 -235 135
-291 171 -276 180 16 10 28 6 129 -53z m-59 -54 c63 -36 160 -93 217 -125 56
-33 102 -64 102 -69 0 -21 -41 -5 -140 53 -97 57 -189 109 -296 167 -43 23
-50 41 -15 41 10 0 70 -30 132 -67z m-36 -79 c272 -157 275 -158 262 -172 -11
-10 -29 -3 -98 37 -46 27 -145 84 -219 126 -157 91 -160 93 -140 105 9 6 29 0
59 -18 25 -15 87 -50 136 -78z m-90 -46 c202 -116 265 -156 265 -168 0 -20
-37 -9 -98 30 -34 22 -65 40 -67 40 -2 0 -60 34 -129 75 -70 42 -137 80 -151
85 -14 5 -25 14 -25 20 0 26 56 3 205 -82z m-219 27 c12 -7 48 -28 80 -46 32
-17 66 -37 74 -44 8 -7 38 -25 65 -39 28 -15 73 -40 100 -57 28 -16 58 -33 68
-36 21 -7 23 -33 1 -33 -9 0 -91 44 -183 97 -91 53 -192 111 -224 128 -31 17
-54 34 -50 38 11 12 48 8 69 -8z"/>
<path d="M9108 12838 c-226 -28 -358 -156 -293 -284 50 -102 238 -174 419
-161 141 10 277 73 320 147 36 61 17 151 -43 202 -26 22 -105 62 -154 78 -54
17 -181 27 -249 18z m114 -27 c15 -1 16 -10 11 -72 l-6 -71 83 53 c78 50 84
52 108 38 14 -8 25 -18 25 -24 0 -5 -30 -26 -67 -46 -36 -19 -69 -39 -73 -44
-5 -4 42 -5 104 -1 117 7 130 3 118 -35 -7 -21 -11 -21 -116 -14 -62 4 -109 3
-109 -2 0 -5 36 -27 80 -48 44 -21 80 -42 80 -45 0 -4 -15 -13 -33 -22 -34
-16 -34 -16 -111 33 -42 27 -79 49 -83 49 -3 0 -3 -31 1 -70 l6 -70 -46 0 -46
0 4 70 c2 39 0 70 -5 70 -4 0 -34 -17 -65 -38 -94 -64 -97 -65 -132 -44 -36
23 -35 25 68 76 39 20 72 38 72 41 0 2 -54 1 -120 -2 -69 -3 -121 -2 -121 3
-1 5 -3 19 -4 32 l-2 23 123 -7 c68 -4 124 -4 124 0 0 3 -41 26 -91 51 l-91
46 38 19 37 20 66 -42 c36 -23 75 -47 87 -55 21 -13 21 -13 16 60 l-4 73 28
-2 c16 -1 37 -2 46 -3z"/>
<path d="M8424 12463 c-125 -25 -208 -77 -251 -157 -17 -32 -13 -118 6 -124 6
-2 11 -8 11 -14 0 -16 49 -56 104 -85 75 -39 151 -54 266 -55 89 0 116 3 180
26 95 34 143 66 176 118 23 35 26 49 20 92 -11 98 -124 177 -294 206 -74 13
-124 11 -218 -7z m172 -83 c-3 -38 -3 -70 0 -70 3 0 39 20 78 45 81 50 94 53
126 27 22 -18 22 -18 -58 -57 -45 -21 -79 -42 -77 -46 3 -4 54 -4 115 -1 l110
5 0 -30 0 -30 -115 5 c-63 2 -115 2 -115 -2 0 -3 36 -24 80 -46 44 -22 80 -44
80 -49 0 -9 -44 -31 -62 -31 -6 0 -44 23 -85 50 -40 28 -75 50 -78 50 -2 0 -1
-33 2 -72 l6 -73 -48 -2 -47 -2 8 76 c5 63 4 74 -7 68 -13 -8 -65 -42 -132
-87 -27 -19 -28 -19 -64 3 l-36 22 87 44 c47 24 86 46 86 49 0 3 -53 4 -117 2
l-118 -3 -3 29 -4 29 121 -5 c67 -3 121 -2 121 1 0 4 -39 26 -87 50 l-86 42
29 20 c16 10 34 19 39 19 6 0 44 -23 85 -50 41 -27 79 -50 84 -50 5 0 6 31 2
70 l-7 70 47 0 47 0 -7 -70z"/>
<path d="M7250 11796 c-80 -18 -169 -70 -205 -119 -41 -57 -42 -128 -2 -181
80 -104 305 -161 484 -123 181 39 279 131 259 242 -15 76 -127 157 -254 184
-68 14 -211 12 -282 -3z m196 -83 c-3 -40 -4 -73 -1 -73 2 0 38 23 79 50 76
52 109 58 136 25 9 -11 -5 -22 -69 -55 -45 -22 -81 -43 -81 -47 0 -3 53 -3
118 0 l118 6 -4 -31 -5 -30 -108 4 c-60 2 -109 1 -109 -2 0 -4 17 -14 38 -24
20 -10 57 -29 82 -44 l45 -26 -39 -17 c-43 -19 -32 -23 -155 58 -19 13 -37 23
-42 23 -4 0 -5 -31 -2 -70 l6 -70 -47 0 -47 0 7 70 c3 39 4 70 0 70 -4 0 -37
-19 -74 -43 -37 -24 -72 -47 -79 -51 -14 -8 -87 20 -80 31 3 5 42 26 86 48 45
21 81 41 81 45 0 3 -53 5 -117 5 l-118 0 -3 28 -3 29 128 -7 128 -6 -70 37
c-38 20 -81 43 -94 51 l-25 16 37 19 37 19 43 -29 c23 -16 62 -41 86 -57 l44
-27 -6 70 c-8 77 -6 80 57 78 l28 -1 -6 -72z"/>
<path d="M6675 11443 c-109 -15 -223 -74 -268 -138 -33 -49 -39 -87 -20 -135
44 -105 191 -174 373 -174 151 1 270 39 342 110 54 51 65 100 38 161 -29 66
-55 91 -129 125 -100 46 -229 66 -336 51z m139 -80 c-3 -32 -7 -64 -10 -70 -6
-22 13 -15 86 32 39 25 74 45 80 45 16 0 60 -23 60 -32 0 -4 -34 -25 -75 -45
-41 -21 -75 -40 -75 -44 0 -3 55 -4 123 -2 67 2 118 1 112 -4 -5 -4 -10 -17
-10 -28 0 -19 -6 -20 -112 -16 -62 1 -113 0 -113 -3 0 -3 36 -24 80 -48 44
-24 80 -46 80 -49 0 -4 -14 -12 -31 -19 -35 -15 -52 -8 -148 56 l-53 36 3 -73
4 -74 -44 0 -44 0 2 75 c2 71 2 74 -16 59 -10 -9 -48 -34 -84 -56 -64 -40 -66
-41 -97 -26 -18 9 -32 18 -32 22 0 3 30 21 68 40 122 63 123 63 -18 59 l-125
-3 -3 29 -4 29 121 -6 c67 -3 121 -2 121 2 0 4 -36 25 -80 46 -44 21 -80 42
-80 46 0 10 22 26 46 33 15 5 42 -8 98 -44 42 -27 81 -50 87 -50 9 0 5 82 -6
117 -6 18 5 23 52 23 l43 0 -6 -57z"/>
<path d="M3880 10941 l0 -80 55 -33 55 -33 0 -1252 0 -1253 48 29 c26 15 103
61 172 101 69 40 157 92 195 115 39 23 80 45 91 49 16 5 105 -42 375 -198
l354 -204 3 -390 2 -390 240 -138 239 -138 3 -70 3 -71 70 -42 c68 -41 114
-56 99 -31 -4 6 -3 8 3 5 6 -4 32 5 57 19 l46 26 102 -59 103 -58 3 -73 3 -72
77 -45 c42 -25 80 -45 84 -45 4 0 30 14 56 30 27 17 55 30 62 30 12 0 548
-305 603 -342 15 -11 27 -16 27 -11 0 4 4 3 8 -3 4 -6 31 -24 60 -40 85 -46
93 -51 103 -61 5 -5 13 -44 19 -87 13 -90 4 -114 -33 -93 -12 7 -24 15 -27 18
-10 12 -184 109 -196 109 -7 0 -15 6 -17 13 -3 6 -6 3 -6 -8 -1 -13 -18 -30
-51 -48 -30 -17 -48 -33 -44 -39 4 -7 2 -8 -4 -4 -16 10 -94 -32 -86 -46 4 -7
3 -8 -5 -4 -15 10 -183 -92 -175 -106 4 -6 3 -8 -3 -5 -6 4 -18 0 -28 -7 -17
-12 -16 -14 11 -33 20 -15 45 -21 81 -21 44 -1 54 3 67 23 9 14 22 22 30 19 8
-3 27 6 43 21 15 14 77 54 137 89 l110 63 34 -24 c19 -12 39 -23 43 -23 29 0
-8 -27 -135 -100 -109 -63 -143 -87 -139 -99 4 -13 3 -13 -5 -2 -8 12 -17 9
-52 -16 -24 -18 -37 -34 -31 -38 6 -3 16 -3 23 1 6 4 8 3 5 -3 -9 -14 38 -37
58 -29 9 3 25 1 35 -4 16 -9 24 -5 46 20 18 20 33 28 45 25 12 -4 23 1 31 15
7 11 75 57 151 102 76 44 144 86 151 94 11 10 12 24 4 58 -5 24 -8 62 -6 85
l3 40 48 -29 c36 -23 47 -36 47 -55 0 -26 18 -33 37 -14 9 9 39 -4 117 -47
l106 -59 0 -70 0 -70 79 -48 79 -47 61 36 61 36 103 -59 102 -59 3 -70 3 -70
73 -42 c41 -23 79 -42 85 -42 6 0 36 14 66 31 l55 31 0 569 c0 313 2 569 5
569 6 0 168 -93 762 -436 312 -180 416 -240 450 -261 l22 -13 1 -557 c0 -307
0 -596 0 -644 l0 -85 48 -26 c26 -14 61 -34 78 -44 31 -18 31 -18 83 14 28 18
56 32 63 32 6 0 93 -47 194 -105 l183 -105 48 29 c239 145 888 511 899 507 8
-3 25 0 39 6 l25 11 0 219 c0 145 4 218 10 218 6 0 21 10 34 23 13 12 32 27
42 34 17 10 17 12 2 12 -9 1 -20 -3 -23 -9 -3 -6 -15 -10 -25 -10 -10 0 -24
-8 -29 -17 -7 -13 -10 40 -11 179 l0 196 168 96 c93 53 172 96 175 96 4 0 7
-180 7 -399 0 -347 2 -400 15 -405 23 -8 65 15 65 36 0 21 16 24 23 4 3 -8 19
-22 36 -30 29 -16 32 -15 95 25 36 22 70 38 76 34 6 -4 10 16 10 57 l0 63 213
122 c116 66 282 161 367 210 85 50 256 148 380 220 124 71 333 192 465 268
132 76 339 196 460 265 121 70 276 160 345 200 69 40 244 141 390 225 146 84
315 181 375 217 l110 63 3 1342 2 1342 55 31 55 31 0 80 0 80 -57 -32 c-32
-18 -164 -94 -293 -169 -129 -75 -332 -192 -450 -260 -118 -68 -253 -146 -300
-173 -97 -57 -173 -101 -500 -289 -129 -75 -291 -168 -360 -208 -215 -125
-383 -222 -450 -260 -36 -20 -184 -106 -330 -190 -146 -84 -294 -170 -330
-190 -36 -21 -119 -69 -185 -107 -66 -39 -196 -114 -290 -168 -93 -54 -251
-145 -350 -202 -286 -167 -304 -177 -420 -243 -219 -125 -511 -294 -546 -316
l-37 -23 -118 68 c-66 37 -180 103 -254 146 -74 43 -256 147 -405 233 -148 85
-298 172 -332 193 -34 22 -65 39 -67 39 -3 0 -81 44 -173 98 -93 55 -366 213
-608 352 -242 139 -537 310 -655 378 -118 69 -260 151 -315 182 -55 31 -151
87 -214 123 -62 37 -115 67 -116 67 -2 0 -32 17 -66 38 -35 22 -84 50 -109 64
-25 14 -90 51 -145 83 -218 126 -421 243 -645 373 -129 74 -302 174 -385 222
-82 47 -258 148 -390 224 -132 77 -334 194 -450 261 -115 67 -361 208 -545
315 -184 106 -373 215 -418 241 -46 27 -86 49 -88 49 -2 0 -4 -36 -4 -79z
m290 -342 l90 -51 0 -54 c0 -30 -3 -54 -6 -54 -3 0 -48 25 -100 55 l-94 56 0
49 c0 28 5 50 10 50 6 0 51 -23 100 -51z m10890 -983 l0 -54 -77 -45 c-136
-77 -123 -76 -123 -13 l0 54 93 55 c50 31 95 56 100 56 4 1 7 -23 7 -53z
m-10691 -254 c25 -15 58 -34 73 -42 54 -30 495 -284 573 -330 44 -26 139 -80
210 -120 72 -40 137 -79 145 -85 8 -7 35 -23 60 -36 25 -13 54 -31 65 -41 11
-9 22 -17 25 -16 12 0 60 -26 60 -34 0 -4 5 -8 11 -8 23 0 199 -105 194 -117
-2 -7 2 -10 10 -6 8 3 36 -8 62 -25 27 -17 65 -38 86 -48 20 -10 37 -21 37
-25 0 -4 -23 -19 -51 -33 -50 -27 -51 -27 -90 -10 -21 10 -39 21 -39 26 0 4
-8 8 -18 8 -10 0 -23 5 -28 10 -11 11 -76 49 -129 76 -16 8 -50 28 -75 44 -25
15 -67 41 -95 56 -27 14 -52 30 -55 34 -3 4 -32 22 -65 39 -140 73 -220 121
-218 131 2 5 0 9 -5 8 -15 -4 -92 39 -85 47 5 4 0 5 -9 2 -15 -5 -57 17 -140
74 -15 11 -30 19 -32 19 -3 0 -67 36 -142 80 -75 44 -139 80 -142 80 -3 0 -19
10 -36 23 -17 13 -50 32 -73 43 -24 10 -45 27 -48 36 -4 10 -12 15 -20 11 -8
-3 -41 12 -72 33 -32 22 -71 44 -88 51 -16 6 -25 12 -18 12 6 1 18 7 25 14 11
10 75 44 87 46 2 1 25 -11 50 -27z m311 -498 c74 -42 207 -119 295 -169 276
-159 486 -280 604 -349 62 -36 118 -66 122 -66 5 0 9 -56 9 -125 l0 -126 -22
12 c-27 14 -498 286 -648 374 -58 34 -207 120 -332 191 l-227 129 -1 123 0
124 33 -20 c17 -11 93 -55 167 -98z m408 -124 l112 -63 0 -39 0 -39 -67 38
c-38 20 -115 64 -173 98 l-105 60 -3 43 -3 43 63 -39 c35 -21 114 -66 176
-102z m1346 -574 c43 -25 79 -46 82 -46 2 0 27 -15 56 -34 29 -18 77 -46 105
-61 30 -15 50 -32 46 -38 -3 -6 -1 -7 6 -3 6 4 33 -5 59 -21 26 -15 59 -33 75
-40 15 -7 27 -17 27 -23 0 -5 5 -10 11 -10 10 0 81 -40 287 -161 15 -8 59 -33
97 -54 39 -21 94 -53 123 -71 29 -19 56 -34 61 -34 4 0 19 -8 32 -19 13 -10
51 -33 85 -52 33 -19 139 -79 236 -134 l175 -99 -46 -24 c-25 -14 -49 -29 -52
-34 -8 -13 -72 20 -64 32 3 6 -1 7 -9 4 -8 -3 -29 4 -45 15 -16 12 -32 21 -35
21 -3 0 -20 10 -39 23 -19 13 -59 36 -90 52 -31 15 -54 32 -51 37 3 5 1 7 -4
6 -14 -5 -132 64 -126 74 3 4 -2 5 -10 2 -9 -4 -39 9 -70 30 -30 20 -60 36
-66 36 -7 0 -10 7 -6 16 4 12 1 14 -14 9 -11 -4 -20 -2 -20 4 0 6 6 11 13 12
6 0 3 4 -8 9 -27 12 -43 12 -25 0 8 -5 11 -10 5 -10 -19 0 -135 77 -127 85 4
5 0 6 -10 2 -15 -5 -171 76 -208 109 -9 7 -31 20 -50 29 -35 16 -71 36 -80 45
-3 3 -18 11 -34 18 -16 7 -52 28 -80 46 -28 18 -76 46 -106 62 -30 16 -61 34
-67 41 -7 6 -39 24 -70 39 -32 16 -60 31 -63 34 -3 4 -34 23 -69 42 l-63 36
47 23 c25 13 49 27 51 31 7 11 39 -4 128 -56z m565 -643 c273 -157 547 -316
608 -352 l113 -66 0 -117 c0 -65 -2 -118 -5 -118 -6 0 -195 107 -600 342 -176
102 -390 226 -475 275 l-155 90 -3 116 c-2 83 1 117 9 117 6 0 235 -129 508
-287z m35 90 l166 -96 0 -39 0 -39 -53 30 c-295 169 -291 166 -292 205 -1 20
2 36 6 36 4 0 82 -44 173 -97z m3104 -477 l52 -31 0 -52 c0 -29 -3 -53 -6 -53
-3 0 -48 25 -100 55 l-94 56 0 55 0 56 48 -27 c26 -16 71 -42 100 -59z m654 2
c-4 -43 -4 -43 -96 -95 -51 -29 -95 -53 -99 -53 -4 0 -7 24 -7 53 l0 52 98 57
c106 61 110 61 104 -14z m-2351 -126 c35 -21 288 -167 497 -287 9 -6 53 -30
97 -54 44 -25 103 -60 132 -78 29 -18 55 -33 58 -33 3 0 24 -12 47 -26 23 -14
62 -38 87 -51 51 -28 79 -44 133 -76 63 -38 207 -120 358 -207 165 -94 156
-88 146 -97 -3 -4 -12 -1 -18 5 -17 17 -33 15 -19 -2 10 -12 8 -16 -11 -22
-13 -4 -28 -14 -35 -23 -11 -14 -19 -12 -80 19 -84 43 -115 65 -105 75 4 5 1
5 -6 1 -7 -4 -34 6 -62 23 -28 17 -55 31 -60 31 -5 0 -13 6 -17 14 -4 7 -33
26 -63 41 -30 15 -72 38 -93 52 -20 13 -64 37 -97 54 -33 17 -58 35 -55 40 3
5 -1 6 -10 3 -9 -4 -23 0 -33 9 -9 8 -37 25 -62 39 -25 13 -63 35 -85 49 -44
27 -74 44 -150 85 -27 15 -68 39 -90 54 -22 15 -71 44 -110 65 -38 21 -86 48
-105 61 -19 13 -40 24 -46 24 -6 0 -36 18 -68 40 -31 22 -62 40 -67 40 -6 0
-23 8 -37 19 -27 18 -103 62 -154 88 -37 19 -35 29 11 53 22 11 42 24 46 30 6
10 31 -2 126 -58z m-1033 -148 c35 -24 28 -50 -15 -62 -21 -5 -30 -10 -21 -11
12 -1 16 -10 15 -36 -2 -43 -26 -47 -56 -9 -26 33 -27 51 -3 57 12 3 11 5 -6
6 -19 1 -22 5 -17 24 14 46 61 60 103 31z m-95 -164 c-5 -36 -3 -40 21 -50 35
-13 36 -13 36 4 0 8 9 24 20 37 l20 24 -14 -30 c-10 -21 -12 -44 -7 -77 7 -45
6 -49 -23 -73 -17 -14 -37 -23 -44 -20 -8 3 -18 5 -23 5 -5 0 -8 21 -8 48 1
26 3 39 6 30 4 -16 15 -22 36 -19 4 0 7 -4 7 -10 0 -5 4 -8 9 -5 5 4 12 0 14
-6 3 -7 6 3 6 23 1 21 -5 42 -14 49 -10 9 -15 9 -15 1 0 -8 -6 -8 -20 1 -15
10 -20 24 -20 60 0 27 4 48 9 48 5 0 7 -18 4 -40z m1767 -266 l125 -72 3 -42
3 -41 -40 25 c-22 15 -43 26 -45 26 -3 0 -38 19 -78 43 -40 24 -99 59 -130 77
-55 32 -58 36 -58 73 l0 39 48 -28 c26 -15 103 -60 172 -100z m-1870 107 c0
-14 -42 -41 -52 -35 -12 8 21 44 39 44 7 0 13 -4 13 -9z m254 -309 c22 -58 25
-76 16 -87 -7 -8 -16 -15 -20 -15 -9 0 -90 188 -90 208 0 26 -31 122 -40 122
-5 0 -16 -7 -25 -16 -22 -22 -31 -9 -15 21 16 31 23 31 51 3 12 -13 19 -18 15
-11 -4 8 7 19 31 32 l38 19 6 -101 c4 -76 13 -121 33 -175z m4349 -98 c4 -4
-102 -69 -235 -146 -219 -127 -242 -138 -257 -124 -10 11 -11 16 -3 16 21 0
172 92 166 101 -3 5 1 7 8 4 7 -2 74 31 148 75 128 75 159 88 173 74z m-5099
-253 c9 -12 8 -13 -4 -6 -8 5 -23 8 -32 7 -10 -2 -18 0 -18 4 0 4 8 13 18 20
13 9 18 10 21 1 2 -7 9 -18 15 -26z m196 -95 c0 -16 -27 -29 -42 -20 -6 4 -1
12 13 20 30 17 29 17 29 0z m40 10 c0 -2 -8 -10 -17 -17 -16 -13 -17 -12 -4 4
13 16 21 21 21 13z m5078 -188 l38 -21 -74 -39 -73 -39 -35 21 c-18 12 -34 25
-34 28 0 11 103 70 123 71 10 1 35 -9 55 -21z"/>
<path d="M5490 8606 c0 -2 7 -7 16 -10 8 -3 12 -2 9 4 -6 10 -25 14 -25 6z"/>
<path d="M5085 7135 c-22 -14 -44 -27 -50 -29 -5 -2 -7 -6 -4 -10 8 -8 109 45
109 57 0 12 -13 8 -55 -18z"/>
<path d="M5055 7075 c-22 -12 -94 -54 -160 -92 -172 -101 -519 -300 -595 -343
-36 -20 -78 -45 -94 -55 -39 -26 -352 -207 -593 -342 -105 -59 -189 -111 -185
-115 8 -8 233 -138 238 -138 2 0 4 20 4 43 0 46 12 62 60 85 14 6 35 19 48 28
34 25 27 11 -38 -70 -33 -42 -58 -76 -56 -76 3 0 30 15 60 33 37 21 77 60 124
117 51 63 86 96 138 127 38 23 73 43 77 43 5 0 -19 -34 -53 -75 -34 -41 -58
-75 -54 -75 3 0 30 14 60 30 37 22 74 57 126 123 l73 91 3 -36 c3 -34 8 -40
67 -72 38 -22 77 -36 97 -36 41 0 110 42 157 95 33 38 81 128 81 153 0 18 15
15 69 -14 44 -22 54 -24 89 -15 55 15 100 49 144 106 56 73 81 146 76 223 -4
62 -1 71 18 52 6 -6 20 -3 39 8 28 17 29 20 32 114 2 53 0 98 -4 100 -4 3 -26
-5 -48 -17z"/>
<path d="M4860 7003 c-55 -32 -55 -32 -48 -39 6 -5 108 53 108 62 0 9 -17 3
-60 -23z"/>
<path d="M1630 6859 c0 -27 4 -48 9 -45 5 3 7 16 4 29 -5 22 -5 22 10 2 10
-14 12 -24 5 -32 -7 -9 -4 -11 11 -10 11 0 17 5 15 9 -3 4 7 8 23 8 22 0 25
-2 13 -10 -12 -8 -10 -10 8 -10 13 0 37 -9 53 -20 15 -12 42 -26 59 -31 16 -6
30 -16 30 -21 0 -6 -6 -5 -15 2 -13 11 -15 8 -15 -18 0 -21 6 -31 20 -35 11
-3 20 -13 20 -22 0 -13 10 -16 48 -15 61 1 120 -12 160 -35 l32 -19 -23 -12
c-19 -11 -17 -12 21 -7 27 4 42 2 42 -5 0 -6 16 -19 35 -28 20 -9 40 -25 46
-35 5 -11 15 -19 21 -19 6 0 5 6 -3 17 -12 14 -9 14 21 -3 19 -10 37 -22 38
-26 2 -5 8 -8 13 -8 15 0 6 53 -9 58 -7 2 -10 -2 -6 -12 8 -21 -2 -20 -43 5
-20 13 -32 27 -29 35 3 8 -11 23 -37 38 -99 56 -435 250 -467 269 -28 17 -32
18 -21 4 24 -30 3 -31 -41 -2 -24 16 -37 30 -30 33 13 4 7 22 -9 22 -5 0 -9
-23 -9 -51z m307 -166 c15 -6 13 -9 -12 -14 -28 -6 -28 -7 10 -8 39 -2 108
-30 75 -31 -9 0 -20 4 -25 9 -6 5 -28 11 -50 13 -28 2 -41 8 -43 21 -4 18 14
22 45 10z"/>
<path d="M4638 6874 c-27 -13 -48 -29 -48 -35 0 -9 80 31 105 53 18 16 -10 7
-57 -18z"/>
<path d="M1630 6636 c1 -92 -1 -170 -4 -173 -3 -3 -12 -1 -20 6 -10 9 -20 9
-40 0 -14 -7 -26 -17 -26 -22 0 -6 -3 -8 -6 -4 -3 3 -57 -26 -121 -64 -89 -54
-132 -88 -196 -155 -45 -48 -88 -95 -95 -106 -10 -14 -17 -16 -26 -9 -10 8
-16 4 -24 -15 -17 -36 -15 -40 11 -18 13 11 10 5 -8 -16 -16 -19 -33 -37 -36
-40 -3 -3 -27 -36 -52 -74 -84 -123 -75 -137 212 -300 239 -136 299 -153 432
-125 71 15 93 41 124 145 59 196 115 259 328 371 29 15 37 29 11 19 -9 -3 -12
-2 -9 5 4 5 15 7 26 4 10 -4 27 -2 36 4 17 10 17 10 -2 11 -11 0 5 9 35 20 56
19 95 18 103 -3 2 -7 2 -2 0 10 -5 30 24 20 30 -10 2 -12 5 2 6 31 0 28 -3 52
-7 52 -5 0 -19 -10 -31 -21 -13 -12 -38 -25 -56 -29 -28 -6 -33 -5 -27 9 5 14
3 14 -11 2 -14 -11 -18 -11 -23 5 -17 53 -27 63 -71 70 -41 6 -71 24 -39 24 8
0 18 5 21 10 19 31 -81 -14 -150 -67 -6 -4 -32 -19 -58 -33 -26 -14 -43 -26
-38 -28 5 -2 48 20 95 49 54 32 92 49 103 45 12 -5 2 -14 -39 -35 -30 -16 -74
-41 -97 -55 -32 -21 -48 -25 -67 -19 -13 4 -25 13 -26 18 -2 11 169 115 190
115 6 0 12 7 12 16 0 9 -5 12 -12 8 -8 -5 -9 0 -5 16 4 17 3 20 -6 11 -6 -6
-16 -11 -22 -11 -5 0 -3 5 5 10 13 8 13 11 -1 26 -11 11 -19 12 -23 5 -4 -6
-2 -11 5 -11 8 0 6 -6 -4 -18 -22 -24 -21 -32 3 -32 31 0 24 -13 -17 -35 -21
-10 -45 -24 -53 -31 -26 -20 -90 -54 -103 -54 -7 1 4 14 23 30 38 33 33 41 -7
10 -29 -22 -76 -29 -55 -8 12 12 90 58 160 95 37 19 40 29 12 38 -11 3 -20 11
-20 16 0 6 4 8 9 4 13 -8 21 8 12 24 -11 18 -111 21 -111 4 0 -7 7 -13 15 -13
30 0 14 -20 -46 -55 -33 -19 -64 -35 -68 -35 -15 0 -51 -37 -43 -45 4 -4 -3
-2 -15 6 l-22 13 29 19 c42 27 37 31 -8 8 -29 -15 -39 -16 -39 -6 0 7 34 31
76 53 86 46 121 75 121 100 -1 16 -1 16 -11 -1 -6 -9 -15 -15 -20 -12 -5 4 -7
11 -4 16 11 18 -15 9 -32 -11 -10 -11 -21 -20 -25 -20 -7 0 -73 -41 -95 -60
-7 -6 -13 -8 -13 -5 0 4 -15 -2 -32 -13 l-33 -20 -33 23 c-32 22 -32 23 -8 23
14 0 32 7 41 16 9 9 20 16 25 16 5 0 15 6 22 13 8 6 27 19 43 28 25 13 30 21
29 50 -2 33 -1 33 9 9 14 -31 22 -37 50 -35 33 2 34 33 0 47 -30 12 -38 15
-52 17 -5 0 -9 72 -10 158 -1 86 -4 159 -7 162 -3 3 -4 -70 -4 -163z m-25
-186 c8 -13 -20 -24 -41 -16 -20 8 -9 26 16 26 10 0 22 -5 25 -10z m-85 -30
c-8 -5 -19 -10 -25 -10 -5 0 -3 5 5 10 8 5 20 10 25 10 6 0 3 -5 -5 -10z m90
-20 c-20 -13 -33 -13 -25 0 3 6 14 10 23 10 15 0 15 -2 2 -10z m-170 -30 c0
-5 -8 -11 -17 -11 -17 -1 -17 -2 0 -6 9 -2 15 -9 12 -14 -4 -5 -13 -5 -24 1
-10 5 -21 6 -25 3 -3 -3 -6 -3 -6 0 0 4 12 13 28 21 33 18 32 18 32 6z m310 1
c0 -19 -168 -114 -187 -106 -8 2 -11 9 -8 15 4 6 11 8 16 5 5 -4 9 -1 9 6 0 7
3 10 6 6 4 -3 30 8 58 26 29 18 61 37 72 44 23 14 34 16 34 4z m110 -61 c0 -5
10 -10 22 -10 19 0 20 -2 8 -14 -33 -31 -179 -108 -197 -103 -16 4 -15 6 5 12
12 4 22 11 22 16 0 5 5 9 11 9 16 0 119 63 119 74 0 4 -6 4 -12 -1 -7 -6 -33
-22 -58 -35 -25 -14 -62 -35 -82 -48 -28 -16 -38 -18 -38 -8 0 15 18 28 115
80 75 40 85 43 85 28z m200 -120 c0 -6 -12 -16 -27 -23 -16 -6 -30 -14 -33
-18 -3 -3 -25 -17 -50 -29 -25 -13 -39 -25 -32 -27 6 -3 12 -9 12 -15 0 -6 -7
-5 -16 3 -11 9 -17 10 -23 1 -4 -6 -12 -8 -20 -3 -10 7 -7 13 15 27 16 10 31
21 34 24 3 3 21 14 40 24 19 9 46 24 60 32 30 16 40 18 40 4z m95 -59 c7 -12
-28 -23 -49 -15 -9 3 -13 10 -10 15 7 12 51 12 59 0z m-209 -77 c-4 -10 1 -26
11 -38 16 -20 16 -20 -6 1 -21 19 -24 53 -5 53 3 0 3 -7 0 -16z m84 -18 c0 -3
-4 -8 -10 -11 -5 -3 -10 -1 -10 4 0 6 5 11 10 11 6 0 10 -2 10 -4z"/>
<path d="M1734 6779 c-7 -12 12 -29 34 -29 17 0 15 -10 -4 -25 -15 -11 -15
-12 0 -12 9 0 16 5 16 10 0 5 11 7 25 5 20 -4 23 -3 14 8 -6 8 -17 14 -23 14
-6 0 -18 9 -26 20 -16 23 -26 25 -36 9z"/>
<path d="M4405 6740 c-27 -16 -43 -30 -35 -30 8 0 38 14 65 30 28 16 43 30 35
30 -8 0 -37 -14 -65 -30z"/>
<path d="M4191 6618 c-30 -18 -50 -33 -45 -35 14 -5 104 46 104 58 0 12 3 13
-59 -23z"/>
<path d="M1663 6590 c0 -30 2 -43 4 -27 2 15 2 39 0 55 -2 15 -4 2 -4 -28z"/>
<path d="M1689 6552 c7 -14 18 -18 40 -14 17 2 31 9 31 14 0 6 -7 8 -15 5 -8
-4 -17 -2 -20 3 -4 6 -15 10 -26 10 -16 0 -18 -3 -10 -18z"/>
<path d="M3975 6494 c-22 -13 -44 -25 -50 -27 -5 -3 -7 -7 -4 -11 8 -8 109 45
109 57 0 11 -12 7 -55 -19z"/>
<path d="M2326 6047 c0 -228 -2 -354 -6 -292 l-7 110 1 -131 c1 -97 -2 -127
-10 -116 -27 37 -34 0 -34 -169 0 -93 2 -169 5 -169 2 0 30 15 62 34 32 19 59
33 61 31 4 -3 -77 -106 -104 -133 -25 -25 -14 -23 37 5 51 28 90 66 166 162
l43 53 -3 -38 c-2 -36 0 -39 58 -72 38 -21 74 -34 96 -34 116 -1 249 170 249
318 l0 55 39 -21 c36 -21 40 -21 70 -6 l32 17 -2 132 c0 73 -3 135 -5 139 -2
3 -37 -13 -77 -36 -39 -24 -124 -72 -187 -108 -63 -36 -194 -111 -290 -166
l-175 -101 -3 461 c-1 254 -6 466 -10 470 -4 4 -7 -174 -6 -395z"/>
<path d="M2273 6405 c0 -9 10 -15 23 -15 17 0 22 4 18 15 -4 8 -14 15 -23 15
-10 0 -18 -7 -18 -15z"/>
<path d="M1611 6359 c-34 -21 -67 -39 -71 -39 -15 0 -32 -28 -20 -35 5 -3 10
-3 10 2 0 4 36 30 80 57 44 27 80 50 80 52 0 9 -19 0 -79 -37z"/>
<path d="M1885 6390 c3 -5 10 -10 16 -10 5 0 9 5 9 10 0 6 -7 10 -16 10 -8 0
-12 -4 -9 -10z"/>
<path d="M3741 6358 c-30 -18 -50 -33 -45 -35 12 -4 101 43 109 58 11 16 -9 9
-64 -23z"/>
<path d="M1700 6289 l-25 -20 33 16 c17 8 32 18 32 20 0 10 -16 4 -40 -16z"/>
<path d="M3517 6228 c-26 -17 -46 -33 -43 -35 5 -5 116 55 116 63 0 11 -29 0
-73 -28z"/>
<path d="M1865 6225 c-52 -32 -40 -32 16 0 24 14 40 25 34 25 -5 0 -28 -11
-50 -25z"/>
<path d="M2232 6225 c-7 -8 -9 -15 -4 -15 5 0 15 7 22 15 16 19 -1 19 -18 0z"/>
<path d="M7063 6195 c-14 -15 -14 -16 42 -46 17 -9 57 -32 89 -52 65 -40 86
-45 86 -22 0 22 -73 67 -96 59 -15 -5 -16 -4 -5 4 12 8 7 14 -25 29 -21 10
-45 24 -52 31 -17 15 -24 15 -39 -3z m177 -101 c0 -2 -9 0 -20 6 -11 6 -20 13
-20 16 0 2 9 0 20 -6 11 -6 20 -13 20 -16z"/>
<path d="M6030 6125 c-71 -42 -141 -83 -535 -310 -279 -162 -395 -228 -500
-290 -55 -32 -136 -78 -180 -103 -105 -58 -120 -69 -104 -74 18 -6 3 -25 -33
-44 -41 -21 -49 -8 -13 23 l30 25 -41 -23 -40 -22 -352 202 c-193 112 -354
201 -359 199 -4 -1 -6 -54 -4 -115 2 -73 -1 -113 -7 -113 -6 0 -14 5 -17 10
-13 20 -49 9 -146 -46 -102 -58 -173 -120 -288 -252 -46 -53 -67 -70 -76 -62
-8 7 -15 3 -23 -16 -7 -14 -16 -23 -21 -20 -5 4 -12 -13 -16 -35 -5 -26 -24
-65 -51 -102 -71 -96 -58 -151 47 -207 21 -11 43 -25 50 -32 8 -7 37 -24 64
-36 28 -13 70 -36 95 -51 171 -106 188 -111 321 -108 l106 3 -19 -20 c-26 -29
-78 -135 -78 -161 0 -12 -8 -30 -19 -41 -10 -11 -21 -38 -25 -59 -4 -22 -14
-52 -23 -68 -8 -16 -10 -26 -5 -23 6 3 9 -5 8 -19 0 -14 -2 -25 -4 -25 -1 0
-25 12 -52 26 -30 16 -47 31 -43 38 3 6 3 8 -2 4 -4 -4 -25 2 -46 14 -33 18
-37 24 -26 37 11 14 10 14 -5 2 -15 -11 -22 -11 -45 5 -16 10 -31 19 -35 19
-3 0 -10 4 -15 9 -5 5 -2 6 6 1 10 -5 12 -4 7 4 -4 6 -12 9 -17 6 -9 -6 -128
60 -140 78 -3 5 -10 9 -15 9 -5 0 -15 3 -22 6 -11 4 -11 6 0 14 9 7 7 8 -8 3
-13 -3 -31 2 -47 15 -14 11 -28 20 -31 20 -4 0 -42 21 -86 46 -59 34 -77 50
-73 62 4 15 3 15 -6 2 -9 -12 -13 -12 -19 -2 -5 7 -16 10 -25 6 -13 -5 -17
-18 -15 -58 1 -50 2 -50 5 -8 2 23 6 42 8 42 2 0 41 -22 87 -48 82 -47 83 -49
86 -90 2 -23 1 -42 -2 -42 -2 0 -35 18 -73 40 l-68 39 -3 -28 c-2 -16 -16 -40
-32 -54 -17 -15 -32 -41 -36 -62 -10 -54 1 -133 21 -155 10 -11 68 -48 129
-84 61 -35 210 -121 330 -190 121 -70 239 -132 263 -139 33 -8 56 -8 99 1 68
14 84 26 84 63 0 34 0 34 47 9 21 -11 48 -20 61 -20 89 0 209 123 243 251 7
27 20 49 33 56 60 31 171 95 216 125 28 18 37 62 19 85 -10 11 -8 12 7 7 10
-4 28 -13 39 -21 30 -20 44 -17 130 34 44 26 139 81 211 123 456 261 513 295
518 313 4 18 10 17 72 -18 58 -32 73 -37 115 -33 111 11 229 168 232 311 1 31
4 56 7 54 72 -39 78 -41 104 -23 l26 16 0 165 0 164 60 33 60 33 0 373 c0 204
-1 372 -2 371 -2 0 -37 -20 -78 -44z m47 -14 c0 -11 -5 -17 -9 -15 -4 3 -21
-2 -37 -11 -35 -18 -41 -18 -41 -5 0 12 59 50 77 50 6 0 11 -9 10 -19z m-677
-380 c0 -11 -62 -51 -78 -51 -18 0 -3 24 26 43 30 18 52 22 52 8z m-1400 -91
c0 -14 -4 -13 -44 11 -49 29 -46 44 4 19 22 -11 40 -25 40 -30z m557 -312 c31
-22 42 -38 26 -38 -15 0 -73 40 -73 50 0 15 10 12 47 -12z m-308 -743 c10 -11
-7 -10 -64 2 l-60 12 59 -5 c33 -2 62 -7 65 -9z m-1129 -261 c0 -13 -4 -13
-30 1 -16 9 -30 22 -30 31 0 13 4 13 30 -1 17 -9 30 -22 30 -31z m565 -192
c79 -47 80 -48 83 -91 l3 -43 -78 42 c-43 24 -84 47 -90 53 -14 10 -18 87 -5
87 4 -1 43 -22 87 -48z m20 -134 c23 -10 36 -38 17 -38 -13 0 -52 30 -52 41 0
12 4 11 35 -3z"/>
<path d="M7207 6149 c7 -7 15 -10 18 -7 3 3 -2 9 -12 12 -14 6 -15 5 -6 -5z"/>
<path d="M3305 6105 c-22 -14 -44 -27 -50 -29 -5 -2 -7 -6 -4 -10 6 -6 109 52
109 60 0 9 -18 2 -55 -21z"/>
<path d="M2052 5981 c-106 -60 -163 -106 -188 -154 -8 -15 -20 -76 -26 -135
-10 -93 -14 -109 -35 -125 -31 -25 -29 -37 7 -37 30 0 30 0 30 -57 0 -120 46
-213 104 -213 10 0 44 -21 75 -46 47 -38 60 -45 85 -40 60 12 100 40 113 76
15 42 15 258 1 238 -7 -9 -7 -6 -1 7 4 11 9 130 11 264 4 322 4 322 -176 222z
m-109 -396 c69 -9 84 -23 67 -65 -7 -16 -21 -32 -32 -36 -27 -8 -84 4 -103 22
-19 20 -21 98 -2 91 8 -3 39 -8 70 -12z m191 -120 c3 -8 1 -15 -4 -15 -6 0
-10 7 -10 15 0 8 2 15 4 15 2 0 6 -7 10 -15z m63 -7 c0 -7 -11 -13 -24 -13
-21 0 -22 1 -6 13 9 6 20 12 23 12 4 0 7 -6 7 -12z m-107 -3 c0 -2 -10 -9 -22
-15 -22 -11 -22 -10 -4 4 21 17 26 19 26 11z m-50 -35 c0 -5 -5 -10 -11 -10
-5 0 -7 5 -4 10 3 6 8 10 11 10 2 0 4 -4 4 -10z m-30 -14 c0 -2 -7 -7 -16 -10
-8 -3 -12 -2 -9 4 6 10 25 14 25 6z m-65 -36 c-3 -5 -12 -10 -18 -10 -7 0 -6
4 3 10 19 12 23 12 15 0z m-31 -25 c3 -8 1 -15 -4 -15 -6 0 -10 7 -10 15 0 8
2 15 4 15 2 0 6 -7 10 -15z m258 -110 c3 -13 1 -22 -3 -19 -9 5 -13 44 -5 44
2 0 6 -11 8 -25z m19 2 c-10 -9 -11 -8 -5 6 3 10 9 15 12 12 3 -3 0 -11 -7
-18z"/>
<path d="M3075 5973 c-50 -33 -49 -32 -43 -38 2 -3 29 11 59 30 30 19 47 35
39 35 -9 0 -33 -12 -55 -27z"/>
<path d="M2312 5900 c0 -14 2 -19 5 -12 2 6 2 18 0 25 -3 6 -5 1 -5 -13z"/>
<path d="M2855 5847 c-40 -22 -57 -38 -50 -45 4 -5 105 57 105 64 0 8 -16 3
-55 -19z"/>
<path d="M2632 5715 c-53 -29 -65 -40 -32 -30 28 9 100 55 85 55 -6 -1 -30
-12 -53 -25z"/>
<path d="M2400 5583 c-24 -15 -39 -28 -33 -30 6 -2 33 10 60 26 59 38 35 41
-27 4z"/>
<path d="M747 5513 c-9 -9 -9 -91 1 -96 4 -3 5 15 3 39 -1 24 -1 44 2 44 3 0
43 -22 90 -50 79 -47 85 -52 89 -87 3 -21 3 -40 1 -43 -2 -2 -26 8 -54 23 -27
16 -49 25 -49 20 0 -4 -4 -3 -8 2 -12 17 -43 39 -41 29 6 -34 -4 -62 -26 -74
-28 -15 -45 -62 -45 -126 0 -81 11 -95 138 -168 64 -38 223 -130 352 -205
l235 -136 76 0 c92 1 129 19 129 65 0 36 0 36 42 10 47 -28 95 -25 149 8 79
51 136 130 160 226 6 25 15 46 20 46 14 0 10 76 -6 118 -17 43 -59 72 -102 72
-48 0 -129 -48 -177 -104 -54 -63 -104 -164 -112 -229 -8 -57 -24 -67 -106
-67 -47 0 -68 9 -237 107 -102 58 -204 116 -226 129 -22 12 -89 51 -150 86
l-110 64 -3 57 -3 57 37 -25 c41 -28 58 -24 51 12 -2 13 -2 22 2 20 3 -2 25
-12 48 -23 42 -19 43 -20 43 -69 l0 -50 172 -100 c95 -55 176 -101 180 -103 4
-2 8 17 8 43 0 34 3 44 13 39 10 -6 10 -4 0 7 -12 12 -19 89 -9 89 2 0 43 -23
91 -51 l87 -51 -4 -44 c-4 -49 2 -53 41 -25 23 17 27 27 26 60 -2 50 -7 56
-33 40 -18 -11 -38 -3 -174 76 -321 186 -599 345 -602 345 -1 0 -6 -3 -9 -7z
m103 -200 c0 -7 -3 -13 -8 -13 -16 0 -52 32 -52 46 0 13 5 12 30 -3 17 -9 30
-23 30 -30z"/>
<path d="M11603 5252 c-35 -20 -59 -39 -55 -42 12 -8 8 -30 -8 -40 -24 -15
-37 -11 -16 5 11 8 14 15 7 15 -7 0 -9 5 -5 11 4 6 -15 -1 -42 -16 -60 -34
-73 -45 -54 -45 9 0 8 -5 -6 -15 -19 -15 -19 -15 1 -9 20 6 20 5 1 -10 -15
-12 -16 -16 -5 -16 12 0 12 -2 -1 -10 -28 -18 0 -10 43 12 23 11 36 23 29 26
-10 3 -8 8 5 18 25 18 38 18 22 -2 -8 -10 0 -8 24 6 40 24 47 33 20 24 -15 -5
-15 -3 1 10 22 18 40 21 31 6 -9 -15 -2 -13 49 16 56 31 61 42 6 14 -21 -11
-41 -20 -44 -20 -10 0 1 32 15 41 20 13 31 11 23 -3 -5 -8 2 -6 16 3 25 16 34
50 15 55 -5 2 -38 -13 -72 -34z m72 11 c-1 -11 -10 -17 -21 -16 -10 1 -34 -8
-52 -19 -18 -11 -35 -18 -38 -15 -5 4 94 65 108 66 3 1 5 -7 3 -16z m-85 -63
c-8 -5 -19 -10 -25 -10 -5 0 -3 5 5 10 8 5 20 10 25 10 6 0 3 -5 -5 -10z m-83
-24 c-13 -10 -15 -15 -5 -18 11 -4 -39 -38 -56 -38 -15 0 5 34 30 50 34 21 58
26 31 6z m-41 -71 c-11 -8 -24 -15 -30 -15 -5 0 -1 7 10 15 10 8 24 14 29 14
6 0 1 -6 -9 -14z"/>
<path d="M11465 5150 c-3 -5 -2 -10 4 -10 5 0 13 5 16 10 3 6 2 10 -4 10 -5 0
-13 -4 -16 -10z"/>
<path d="M1394 5039 c14 -9 15 -13 6 -19 -23 -14 -3 -55 35 -73 20 -9 38 -17
40 -17 3 0 5 16 5 36 0 21 -4 33 -10 29 -5 -3 -10 -2 -10 3 0 10 -65 52 -78
52 -4 0 1 -5 12 -11z m49 -53 c17 -13 23 -36 9 -36 -13 0 -52 30 -52 41 0 13
22 11 43 -5z"/>
<path d="M3498 4603 c7 -3 16 -2 19 1 4 3 -2 6 -13 5 -11 0 -14 -3 -6 -6z"/>
<path d="M12210 4362 c0 -208 1 -220 20 -233 14 -10 17 -18 11 -28 -7 -11 -24
-5 -85 33 -42 25 -79 46 -82 46 -4 0 -26 14 -51 30 -24 17 -46 30 -48 30 -2 0
-27 13 -55 30 l-50 29 0 -57 c0 -46 4 -60 19 -69 16 -10 20 -9 24 5 4 13 5 12
6 -4 1 -15 14 -29 40 -42 l40 -21 -25 36 c-21 31 -31 63 -20 63 2 0 20 -28 40
-63 32 -54 47 -69 99 -97 34 -18 85 -45 112 -61 45 -25 51 -26 57 -11 5 14 7
12 7 -6 1 -12 9 -25 19 -29 9 -3 25 -13 35 -21 25 -22 21 -1 -8 41 -13 20 -20
39 -15 42 5 3 23 -22 41 -55 30 -56 39 -65 116 -107 l83 -47 0 -64 c0 -35 3
-62 8 -60 68 33 63 24 61 116 -2 82 -3 85 -30 101 -33 18 -33 37 0 33 l22 -2
-3 215 c-2 174 -6 217 -18 229 -15 14 -81 53 -322 191 l-48 27 0 -220z m144
32 c54 -92 80 -159 30 -79 -13 22 -29 39 -35 37 -6 -1 -8 2 -4 8 6 9 -7 34
-53 108 -8 12 -10 22 -5 22 6 0 36 -43 67 -96z m-94 -59 c0 -80 -3 -145 -7
-145 -5 0 -7 65 -5 145 2 80 5 145 8 145 2 0 4 -65 4 -145z m189 -106 c7 -12
22 -38 33 -58 11 -20 33 -60 50 -88 16 -29 25 -53 19 -53 -5 0 -17 18 -27 40
-10 22 -22 36 -28 33 -6 -3 -8 -2 -4 2 7 7 -16 55 -60 123 -8 12 -10 22 -6 22
5 0 15 -10 23 -21z m-105 -165 c19 -7 22 -34 4 -34 -22 0 -41 17 -34 29 8 13
9 13 30 5z m135 -80 c17 -13 20 -19 10 -25 -16 -9 -72 18 -64 31 9 14 27 12
54 -6z"/>
<path d="M3100 4535 c0 -5 5 -17 10 -25 5 -8 10 -10 10 -5 0 6 -5 17 -10 25
-5 8 -10 11 -10 5z"/>
<path d="M10782 4493 c-12 -2 -20 -9 -16 -14 3 -5 10 -7 15 -4 5 4 9 -1 9 -10
0 -24 24 -12 28 13 2 12 0 21 -5 21 -4 -1 -18 -4 -31 -6z"/>
<path d="M12855 4449 c-4 -6 -5 -12 -2 -15 2 -3 7 2 10 11 7 17 1 20 -8 4z"/>
<path d="M12942 4430 c0 -14 2 -19 5 -12 2 6 2 18 0 25 -3 6 -5 1 -5 -13z"/>
<path d="M10676 4414 c-10 -25 -7 -94 4 -94 6 0 10 3 10 8 2 22 13 88 16 91 2
2 4 -13 4 -35 0 -35 4 -41 30 -51 25 -9 30 -9 30 3 0 8 7 28 15 44 13 25 13
29 0 34 -8 3 -22 3 -30 0 -8 -4 -15 -1 -15 5 0 17 -57 13 -64 -5z"/>
<path d="M10795 4376 c-15 -22 -16 -35 -8 -76 9 -43 8 -52 -8 -66 -11 -10 -19
-23 -19 -29 0 -7 -7 -18 -15 -25 -8 -7 -12 -16 -9 -21 5 -8 -51 -26 -67 -22
-3 1 -13 -31 -23 -70 l-16 -72 35 -85 c36 -88 42 -115 25 -125 -5 -3 -10 -13
-10 -21 0 -22 38 -16 51 9 7 12 16 25 21 28 5 3 0 23 -11 45 -12 21 -21 47
-21 57 0 10 -4 16 -9 13 -5 -3 -8 0 -8 7 1 6 -2 31 -7 55 -7 38 -4 51 29 117
24 48 44 76 58 81 34 11 67 55 67 89 -1 45 -16 115 -28 127 -7 7 -16 2 -27
-16z"/>
<path d="M12825 4389 c-4 -6 -5 -12 -2 -15 2 -3 7 2 10 11 7 17 1 20 -8 4z"/>
<path d="M12939 4368 c0 -18 0 -56 1 -85 1 -40 -2 -52 -15 -55 -14 -3 -14 -5
3 -19 18 -16 19 -13 21 87 1 57 0 104 -3 104 -4 0 -6 -15 -7 -32z"/>
<path d="M10700 4321 c0 -6 14 -17 30 -26 17 -9 30 -20 30 -25 0 -6 5 -10 10
-10 27 0 1 53 -27 55 -10 0 -24 4 -31 9 -6 4 -12 3 -12 -3z"/>
<path d="M12771 4311 c-8 -5 -9 -11 -3 -15 5 -3 12 1 16 9 6 17 6 18 -13 6z"/>
<path d="M3538 4273 c7 -3 16 -2 19 1 4 3 -2 6 -13 5 -11 0 -14 -3 -6 -6z"/>
<path d="M10470 4226 c0 -38 2 -40 82 -85 l56 -32 -2 35 c-2 36 -28 61 -106
101 l-30 16 0 -35z"/>
<path d="M12731 4241 c-8 -6 -9 -11 -3 -15 6 -3 14 -1 17 5 9 14 2 20 -14 10z"/>
<path d="M12685 4171 c-3 -5 -1 -12 5 -16 5 -3 10 1 10 9 0 18 -6 21 -15 7z"/>
<path d="M10641 4151 c-14 -10 -19 -21 -13 -24 5 -4 15 0 22 8 7 8 19 15 26
15 8 0 14 5 14 10 0 15 -23 11 -49 -9z"/>
<path d="M10811 4154 c0 -11 3 -14 6 -6 3 7 2 16 -1 19 -3 4 -6 -2 -5 -13z"/>
<path d="M12656 4147 c3 -10 9 -15 12 -12 3 3 0 11 -7 18 -10 9 -11 8 -5 -6z"/>
<path d="M12880 4150 c-9 -6 -10 -10 -3 -10 6 0 15 5 18 10 8 12 4 12 -15 0z"/>
<path d="M12714 4054 c-18 -14 -18 -15 4 -4 12 6 22 13 22 15 0 8 -5 6 -26
-11z"/>
<path d="M10751 3994 c0 -11 3 -14 6 -6 3 7 2 16 -1 19 -3 4 -6 -2 -5 -13z"/>
<path d="M11410 3762 l0 -219 40 -28 c43 -30 56 -48 15 -21 -20 13 -25 14 -25
2 0 -21 56 -41 74 -27 10 9 16 9 21 1 4 -6 13 -9 21 -6 11 4 12 2 4 -14 -8
-15 -5 -23 17 -39 15 -13 34 -19 45 -16 30 10 58 -4 58 -29 0 -29 45 -50 83
-40 24 5 27 3 27 -19 0 -33 44 -53 84 -37 17 6 25 6 21 0 -3 -6 -2 -10 2 -10
5 0 14 -9 21 -21 8 -12 9 -18 3 -14 -6 3 -11 2 -11 -4 0 -17 38 -32 65 -25 16
4 34 0 51 -11 14 -9 31 -14 38 -12 7 3 13 0 13 -7 0 -8 -9 -11 -24 -8 -32 6
-29 -10 6 -29 18 -11 34 -13 42 -8 8 5 21 6 29 4 12 -4 15 5 14 43 -1 26 -2
126 -2 223 l-2 175 -32 17 c-52 27 -140 77 -152 86 -6 4 -33 21 -61 36 -54 29
-192 109 -320 185 -44 26 -99 57 -122 69 l-43 21 0 -218z m145 28 c32 -56 55
-103 52 -106 -3 -3 -13 8 -23 25 -15 25 -20 28 -33 18 -12 -10 -13 -9 -4 7 11
20 -3 54 -48 118 -20 27 -26 53 -10 44 5 -3 35 -51 66 -106z m-96 -54 c1 -82
-3 -137 -9 -141 -7 -4 -10 42 -10 134 0 78 4 141 9 141 5 0 9 -60 10 -134z
m445 -147 c32 -55 56 -102 53 -105 -3 -3 -10 4 -17 15 -6 12 -15 19 -20 16 -5
-3 -12 0 -16 6 -4 8 -3 9 4 5 19 -11 15 -1 -30 79 -23 41 -46 71 -51 68 -6 -3
-7 -1 -3 5 4 7 10 12 14 12 4 0 34 -45 66 -101z m-191 -71 c26 -44 46 -83 43
-85 -10 -10 -136 206 -135 232 0 6 10 -7 22 -29 12 -21 44 -74 70 -118z m96
12 c0 -77 -5 -140 -9 -140 -9 0 -13 258 -4 271 13 21 15 1 13 -131z m240 -189
c43 -72 59 -107 51 -115 -7 -7 -10 -6 -10 4 0 8 -25 56 -55 106 -30 51 -55 98
-55 105 0 17 0 17 69 -100z m-455 83 c3 -8 2 -12 -4 -9 -6 3 -10 10 -10 16 0
14 7 11 14 -7z"/>
<path d="M12952 3955 c0 -16 2 -22 5 -12 2 9 2 23 0 30 -3 6 -5 -1 -5 -18z"/>
<path d="M12925 3930 c-3 -5 -1 -10 4 -10 6 0 11 5 11 10 0 6 -2 10 -4 10 -3
0 -8 -4 -11 -10z"/>
<path d="M8298 3817 c-98 -56 -178 -105 -178 -108 0 -3 39 -27 86 -53 l85 -48
72 43 c40 23 97 56 127 74 126 73 170 100 170 105 0 8 -157 90 -172 89 -7 0
-93 -46 -190 -102z"/>
<path d="M8810 3812 c-55 -30 -55 -30 -90 -12 l-35 17 -182 -105 c-101 -58
-183 -109 -183 -112 0 -3 15 -14 33 -24 115 -66 136 -123 137 -384 l2 -172 59
-46 c56 -44 106 -99 121 -134 4 -8 7 51 7 132 1 105 -2 147 -11 150 -8 3 -6 7
5 11 9 3 16 3 16 -1 -1 -4 -1 -129 0 -278 l1 -271 39 -18 c39 -17 39 -17 90
10 49 27 51 30 51 70 0 35 4 44 24 53 19 9 27 8 37 -4 10 -12 9 -13 -5 -8 -26
10 -18 -10 12 -28 19 -11 34 -13 51 -7 26 10 41 -1 41 -32 0 -16 26 -34 43
-31 4 1 7 -3 7 -8 0 -7 7 -7 21 1 27 14 70 -6 62 -29 -4 -8 4 -22 18 -33 29
-23 34 -23 53 -3 9 8 16 11 16 5 0 -6 5 -11 10 -11 6 0 10 80 10 219 l0 219
-82 47 c-46 26 -101 58 -123 70 -22 13 -67 39 -100 59 -33 19 -67 39 -75 44
-14 9 -7 14 248 161 59 34 62 38 60 71 -2 28 -9 38 -35 50 l-32 15 -3 140 -3
139 -80 45 c-106 60 -158 65 -235 23z m145 -65 c12 -10 14 -16 7 -21 -8 -5
-12 -62 -12 -186 l0 -179 -30 -16 c-16 -8 -34 -15 -40 -15 -7 0 -10 41 -9 128
1 123 -7 166 -45 252 -15 36 89 65 129 37z m125 4 c0 -13 -34 -23 -54 -15 -9
3 -13 10 -10 15 7 12 64 12 64 0z m-260 -150 c0 -12 -21 -19 -42 -13 -29 7
-21 22 12 22 17 0 30 -4 30 -9z m330 -216 c0 -19 -4 -35 -10 -35 -11 0 -14 53
-3 63 11 12 13 8 13 -28z m-210 -121 c0 -31 -2 -35 -21 -29 -13 5 -19 3 -15
-3 3 -5 -1 -13 -9 -16 -13 -4 -13 -2 -5 14 7 13 7 21 -1 26 -7 4 0 14 18 25
15 10 29 19 31 19 1 0 2 -16 2 -36z m-300 -200 c0 -3 -5 -2 -10 1 -6 4 -18 1
-27 -7 -12 -9 -15 -9 -9 0 4 7 2 12 -6 12 -10 0 -9 3 1 9 14 9 51 -2 51 -15z
m240 -144 l0 -170 -35 17 c-19 9 -35 21 -35 27 -1 24 -1 203 -1 228 1 18 11
32 34 46 17 11 33 21 35 21 1 1 2 -75 2 -169z m100 152 c0 -4 25 -52 56 -106
31 -53 54 -100 51 -103 -5 -4 -110 166 -123 201 -3 9 -1 16 5 16 6 0 11 -4 11
-8z m-435 -22 c-3 -5 -12 -10 -18 -10 -7 0 -6 4 3 10 19 12 23 12 15 0z m382
-202 c-1 -40 -3 -8 -3 72 0 80 2 112 3 73 2 -40 2 -106 0 -145z m-292 102 c-3
-5 -12 -10 -18 -10 -7 0 -6 4 3 10 19 12 23 12 15 0z m535 -215 c35 -58 60
-109 56 -112 -8 -8 -7 -10 -51 72 -21 39 -47 82 -57 97 -16 24 -24 48 -14 48
2 0 32 -47 66 -105z m-22 -40 c-3 -3 -9 2 -12 12 -6 14 -5 15 5 6 7 -7 10 -15
7 -18z m-180 -20 c-3 -3 -9 2 -12 12 -6 14 -5 15 5 6 7 -7 10 -15 7 -18z m233
-142 c13 -17 13 -17 -6 -3 -11 8 -22 16 -24 17 -2 2 0 3 6 3 6 0 17 -8 24 -17z"/>
<path d="M10788 3812 c-10 -2 -18 -9 -18 -17 0 -7 -7 -18 -15 -25 -19 -16 -20
-50 -1 -50 8 0 26 10 40 23 21 17 25 27 19 47 -5 17 -14 24 -25 22z"/>
<path d="M12755 3780 c3 -5 1 -10 -5 -10 -15 0 -3 -92 13 -102 17 -11 29 -10
22 2 -3 6 -1 10 5 10 7 0 10 -6 7 -14 -4 -10 9 -23 39 -40 l44 -25 -17 29 c-9
16 -21 26 -26 23 -6 -3 -7 -1 -3 6 4 6 2 18 -4 26 -9 11 -9 15 -1 15 6 0 25
-25 42 -55 26 -45 73 -95 91 -95 3 0 40 -20 84 -45 43 -25 82 -45 86 -45 3 0
9 8 11 18 3 11 5 7 6 -9 1 -21 11 -32 43 -49 l41 -21 -16 25 c-10 14 -24 36
-32 49 -8 13 -12 27 -8 30 3 4 20 -17 36 -46 41 -72 58 -89 127 -122 l60 -29
0 -87 c0 -74 4 -93 26 -133 14 -25 22 -46 16 -46 -5 0 -15 12 -23 28 -13 26
-14 24 -17 -42 -4 -91 -1 -96 47 -93 l39 2 1 210 c1 116 -2 215 -6 220 -8 11
-211 133 -313 187 -30 17 -60 34 -66 39 -6 5 -42 26 -80 47 -38 21 -113 64
-166 95 -100 58 -114 65 -103 47z"/>
<path d="M12700 3710 c8 -5 20 -10 25 -10 6 0 3 5 -5 10 -8 5 -19 10 -25 10
-5 0 -3 -5 5 -10z"/>
<path d="M12477 3646 c-4 -10 -1 -13 9 -9 7 3 14 9 14 14 0 14 -17 10 -23 -5z"/>
<path d="M8120 3620 c-19 -19 -20 -33 -20 -312 0 -169 4 -309 10 -330 8 -29
19 -41 53 -57 57 -28 70 -27 110 9 19 16 55 38 80 49 67 29 79 61 85 242 5
176 -8 239 -62 287 -30 26 -214 132 -230 132 -3 0 -15 -9 -26 -20z"/>
<path d="M12298 3543 c7 -3 16 -2 19 1 4 3 -2 6 -13 5 -11 0 -14 -3 -6 -6z"/>
<path d="M12200 3490 c0 -5 5 -10 11 -10 5 0 7 5 4 10 -3 6 -8 10 -11 10 -2 0
-4 -4 -4 -10z"/>
<path d="M12259 3468 c-1 -66 3 -256 6 -273 2 -11 4 -28 4 -37 1 -11 6 -15 16
-12 12 5 15 27 15 115 0 60 3 109 8 109 4 0 6 -48 4 -106 l-3 -105 23 12 c13
7 40 23 61 36 l38 24 -24 42 c-13 23 -34 59 -46 81 -12 21 -19 41 -15 45 4 3
9 2 11 -4 2 -5 25 -46 51 -90 47 -78 50 -81 142 -132 l95 -53 3 30 c5 43 19
37 18 -7 -1 -35 2 -39 52 -66 l52 -28 -12 28 c-7 15 -15 30 -18 33 -16 13 -52
82 -46 87 8 8 4 13 59 -83 26 -45 56 -89 67 -99 11 -10 20 -26 20 -36 0 -9 27
-64 60 -122 62 -107 83 -168 30 -84 -16 26 -30 50 -30 52 0 3 -13 26 -30 53
l-30 47 -1 -35 c-6 -172 -5 -182 18 -177 12 2 20 1 18 -3 -3 -5 2 -11 11 -14
10 -4 13 -13 9 -25 -8 -25 38 -51 78 -44 l27 5 0 217 0 217 -57 34 c-32 18
-69 40 -83 49 -14 9 -36 22 -50 29 -14 7 -59 33 -100 57 -41 24 -100 58 -130
75 -30 17 -71 41 -92 53 -62 37 -221 127 -224 127 -2 0 -4 -10 -5 -22z"/>
<path d="M13829 3463 c-3 -25 3 -258 7 -262 3 -3 4 57 3 132 0 75 -3 137 -5
137 -2 0 -4 -3 -5 -7z"/>
<path d="M8034 3441 c-18 -11 -35 -25 -39 -32 -5 -8 -4 -10 4 -5 6 4 11 4 10
-1 -4 -21 3 -31 26 -41 37 -17 45 -14 13 4 -16 8 -28 19 -28 25 0 6 5 7 12 3
7 -5 9 0 6 14 -4 12 0 23 8 26 8 3 11 0 7 -10 -3 -7 0 -14 6 -14 6 0 10 11 9
25 -1 14 -3 25 -3 25 0 0 -14 -9 -31 -19z"/>
<path d="M7926 3380 c-26 -17 -44 -34 -41 -39 3 -5 0 -13 -6 -17 -8 -4 -9 -3
-5 4 9 15 -4 15 -24 2 -13 -8 -11 -11 8 -16 12 -4 22 -11 22 -16 0 -6 7 -7 16
-4 8 3 13 2 10 -2 -6 -11 82 -54 95 -47 5 4 6 -2 2 -11 -5 -14 -3 -16 11 -11
9 4 15 3 12 -2 -3 -5 1 -12 10 -15 25 -10 34 -7 34 9 0 8 -3 15 -8 15 -18 0
-166 94 -154 98 7 2 24 -4 38 -13 60 -39 124 -74 124 -67 0 4 -36 27 -80 52
-106 60 -106 80 0 24 19 -11 38 -23 41 -28 4 -4 9 -4 12 1 3 5 -17 19 -44 32
-27 13 -49 28 -49 33 0 6 -8 7 -17 3 -14 -5 -15 -3 -7 5 8 8 18 8 30 2 11 -5
35 -17 54 -27 l35 -18 -35 32 c-19 18 -28 29 -20 25 13 -7 13 -5 1 9 -7 9 -14
17 -15 17 -1 0 -23 -14 -50 -30z"/>
<path d="M13680 3398 c0 -9 5 -20 10 -23 13 -8 13 5 0 25 -8 13 -10 13 -10 -2z"/>
<path d="M13707 3393 c3 -7 6 -13 8 -13 2 0 5 6 8 13 3 8 -1 14 -8 14 -7 0
-11 -6 -8 -14z"/>
<path d="M13796 3395 c-3 -8 -1 -15 3 -15 5 0 11 7 15 15 3 8 1 15 -3 15 -5 0
-11 -7 -15 -15z"/>
<path d="M11265 3328 c75 -52 195 -121 200 -116 3 2 -37 28 -88 58 -50 29 -96
59 -102 66 -5 6 -21 15 -35 19 -16 4 -8 -5 25 -27z"/>
<path d="M8055 3320 c3 -5 8 -10 11 -10 2 0 4 5 4 10 0 6 -5 10 -11 10 -5 0
-7 -4 -4 -10z"/>
<path d="M12202 3301 c-6 -17 -9 -31 -6 -31 7 0 25 52 20 57 -2 2 -8 -10 -14
-26z"/>
<path d="M11110 3300 c0 -5 5 -10 11 -10 5 0 7 5 4 10 -3 6 -8 10 -11 10 -2 0
-4 -4 -4 -10z"/>
<path d="M7810 3280 c0 -5 7 -10 15 -10 9 0 15 -9 15 -22 0 -18 2 -20 9 -8 11
17 7 26 -20 40 -13 7 -19 7 -19 0z"/>
<path d="M13606 3235 c-9 -26 -7 -32 5 -12 6 10 9 21 6 23 -2 3 -7 -2 -11 -11z"/>
<path d="M11000 3236 c0 -6 110 -74 193 -120 37 -20 67 -35 67 -32 0 3 -45 30
-100 61 -55 32 -100 60 -100 64 0 4 -11 13 -25 19 -28 13 -35 14 -35 8z"/>
<path d="M7829 3155 c-13 -13 -30 -25 -36 -25 -7 0 -13 -9 -13 -21 0 -18 4
-20 25 -15 22 6 25 3 25 -21 1 -68 82 -173 135 -173 31 0 95 38 95 56 0 8 -9
37 -19 64 -50 131 -154 197 -212 135z"/>
<path d="M10895 3170 c4 -6 11 -8 16 -5 14 9 11 15 -7 15 -8 0 -12 -5 -9 -10z"/>
<path d="M11544 3171 c11 -16 286 -178 286 -167 0 2 -46 30 -102 62 -57 33
-110 66 -119 74 -30 28 -77 51 -65 31z"/>
<path d="M13765 3160 c-3 -6 1 -7 9 -4 18 7 21 14 7 14 -6 0 -13 -4 -16 -10z"/>
<path d="M13725 3150 c-3 -5 -2 -10 4 -10 5 0 13 5 16 10 3 6 2 10 -4 10 -5 0
-13 -4 -16 -10z"/>
<path d="M13240 3125 c-7 -9 -8 -15 -2 -15 5 0 12 7 16 15 3 8 4 15 2 15 -2 0
-9 -7 -16 -15z"/>
<path d="M13334 3127 c3 -10 6 -62 6 -114 0 -53 3 -93 6 -90 11 11 4 201 -8
212 -8 7 -9 5 -4 -8z"/>
<path d="M10791 3072 c2 -31 7 -49 13 -46 6 2 63 -28 126 -65 63 -38 118 -67
122 -65 5 3 8 17 8 33 0 24 -12 34 -110 90 -71 40 -108 67 -104 74 4 7 3 9 -1
4 -5 -4 -19 0 -32 9 l-24 15 2 -49z"/>
<path d="M11435 3110 c3 -5 8 -10 11 -10 2 0 4 5 4 10 0 6 -5 10 -11 10 -5 0
-7 -4 -4 -10z"/>
<path d="M13540 3105 c-7 -9 -10 -18 -7 -21 3 -3 10 4 17 15 13 25 8 27 -10 6z"/>
<path d="M13150 3089 c0 -5 5 -7 10 -4 6 3 10 8 10 11 0 2 -4 4 -10 4 -5 0
-10 -5 -10 -11z"/>
<path d="M13210 3079 c0 -5 5 -7 10 -4 6 3 10 8 10 11 0 2 -4 4 -10 4 -5 0
-10 -5 -10 -11z"/>
<path d="M11792 3054 c10 -10 20 -16 22 -13 3 3 -5 11 -17 18 -21 13 -21 12
-5 -5z"/>
<path d="M13090 3059 c0 -5 5 -7 10 -4 6 3 10 8 10 11 0 2 -4 4 -10 4 -5 0
-10 -5 -10 -11z"/>
<path d="M11361 3021 c76 -49 241 -142 246 -137 2 2 -39 28 -92 57 -54 30
-108 64 -121 76 -13 12 -24 19 -24 16 0 -4 -5 -2 -12 5 -7 7 -19 12 -27 12 -8
0 5 -13 30 -29z"/>
<path d="M9614 2915 c0 -71 1 -99 3 -62 2 37 2 96 0 130 -2 34 -3 4 -3 -68z"/>
<path d="M11930 3012 c-14 -9 -25 -23 -25 -31 0 -8 -14 -20 -32 -28 -29 -11
-32 -11 -26 3 5 15 3 14 -20 -1 -15 -9 -27 -25 -27 -35 0 -19 -47 -45 -52 -29
-6 18 -59 -12 -53 -30 6 -21 -45 -47 -56 -29 -5 8 -14 7 -33 -6 -15 -9 -24
-21 -22 -25 8 -12 -31 -44 -44 -36 -5 3 -8 11 -4 16 3 6 -10 0 -30 -13 -33
-21 -46 -38 -28 -38 4 0 5 -22 4 -50 -4 -53 -2 -56 29 -40 14 8 19 21 19 50 0
36 4 41 46 66 46 27 47 27 79 10 29 -16 37 -16 61 -4 25 11 30 20 32 58 3 42
7 46 48 67 l44 22 35 -20 c33 -20 35 -20 59 -2 22 16 25 25 26 81 0 34 -1 62
-2 61 -2 0 -14 -8 -28 -17z m-200 -226 c0 -2 -7 -7 -16 -10 -8 -3 -12 -2 -9 4
6 10 25 14 25 6z"/>
<path d="M9475 3010 c-3 -5 -1 -10 4 -10 6 0 11 5 11 10 0 6 -2 10 -4 10 -3 0
-8 -4 -11 -10z"/>
<path d="M9515 3009 c-4 -6 -5 -12 -2 -15 2 -3 7 2 10 11 7 17 1 20 -8 4z"/>
<path d="M12050 2777 l0 -214 25 -23 c16 -15 21 -26 15 -30 -17 -11 38 -42 60
-35 31 10 59 -3 53 -24 -6 -25 44 -58 67 -43 13 8 25 6 48 -8 16 -10 33 -24
38 -32 6 -10 4 -10 -9 1 -15 12 -17 11 -17 -2 0 -18 32 -31 77 -32 l32 0 1
216 c1 245 9 221 -95 279 -35 19 -112 63 -172 98 -60 34 -113 62 -116 62 -4 0
-7 -96 -7 -213z m100 124 c0 -5 25 -53 55 -107 31 -54 54 -101 53 -106 -2 -5
-19 18 -38 51 -19 32 -38 57 -43 54 -4 -2 -7 -1 -6 4 4 23 -3 43 -25 68 -24
27 -26 45 -5 45 5 0 9 -4 9 -9z m-53 -233 c-1 -40 -3 -8 -3 72 0 80 2 112 3
73 2 -40 2 -106 0 -145z m225 -75 c23 -43 45 -82 47 -88 2 -5 10 -18 18 -27 8
-9 13 -22 11 -29 -4 -12 -128 192 -128 211 0 20 9 9 52 -67z"/>
<path d="M9478 2945 c-6 -13 -15 -22 -19 -19 -5 3 -6 -2 -3 -11 4 -9 8 -15 9
-13 9 11 34 68 30 68 -3 0 -10 -11 -17 -25z"/>
<path d="M13130 2960 c8 -5 20 -10 25 -10 6 0 3 5 -5 10 -8 5 -19 10 -25 10
-5 0 -3 -5 5 -10z"/>
<path d="M8343 2950 c-13 -5 -32 -24 -43 -42 -21 -34 -28 -108 -10 -108 6 0
10 -8 10 -17 0 -39 58 -140 105 -181 63 -55 100 -62 162 -29 l48 25 -1 63 c-1
109 -83 236 -179 280 -44 21 -59 22 -92 9z"/>
<path d="M11118 2900 c-5 -32 14 -70 35 -70 7 0 23 -10 37 -21 14 -11 19 -17
11 -13 -9 5 -12 3 -7 -5 4 -6 11 -9 16 -6 9 5 58 -19 145 -71 52 -31 63 -30
67 4 3 25 -6 32 -122 98 -84 48 -125 77 -124 88 1 9 -2 13 -7 10 -5 -3 -17 0
-28 5 -16 9 -19 7 -23 -19z"/>
<path d="M12784 2745 c0 -77 2 -107 3 -67 2 40 2 103 0 140 -2 37 -3 4 -3 -73z"/>
<path d="M13285 2870 c3 -5 -7 -16 -22 -24 -15 -8 -23 -15 -18 -16 6 0 23 8
38 19 23 15 25 19 12 25 -9 3 -13 2 -10 -4z"/>
<path d="M13205 2821 c3 -6 -3 -14 -12 -20 -10 -6 -13 -10 -8 -10 6 0 18 6 28
13 16 12 16 14 2 20 -9 3 -13 2 -10 -3z"/>
<path d="M9395 2810 c-3 -5 -1 -10 4 -10 6 0 11 5 11 10 0 6 -2 10 -4 10 -3 0
-8 -4 -11 -10z"/>
<path d="M12651 2773 c-10 -26 -10 -27 4 -9 8 11 15 23 15 28 0 15 -7 8 -19
-19z"/>
<path d="M13119 2763 c-13 -15 -12 -15 11 -3 34 17 36 20 18 20 -9 0 -22 -7
-29 -17z"/>
<path d="M12530 2760 c8 -5 20 -10 25 -10 6 0 3 5 -5 10 -8 5 -19 10 -25 10
-5 0 -3 -5 5 -10z"/>
<path d="M9365 2750 c3 -5 8 -10 11 -10 2 0 4 5 4 10 0 6 -5 10 -11 10 -5 0
-7 -4 -4 -10z"/>
<path d="M9550 2750 c0 -5 5 -10 11 -10 5 0 7 5 4 10 -3 6 -8 10 -11 10 -2 0
-4 -4 -4 -10z"/>
<path d="M9426 2703 c-6 -14 -5 -15 5 -6 7 7 10 15 7 18 -3 3 -9 -2 -12 -12z"/>
<path d="M9480 2710 c-9 -6 -10 -10 -3 -10 6 0 15 5 18 10 8 12 4 12 -15 0z"/>
<path d="M9320 2679 c0 -5 5 -7 10 -4 6 3 10 8 10 11 0 2 -4 4 -10 4 -5 0 -10
-5 -10 -11z"/>
<path d="M9393 2650 c-16 -25 -16 -25 4 -7 11 9 27 17 36 17 9 0 18 3 20 8 3
4 -6 7 -19 7 -16 0 -31 -9 -41 -25z"/>
<path d="M9585 2636 c11 -7 31 -16 45 -20 14 -4 8 2 -14 14 -46 23 -59 26 -31
6z"/>
<path d="M12563 2629 c-2 -23 3 -25 10 -4 4 8 3 16 -1 19 -4 3 -9 -4 -9 -15z"/>
<path d="M12520 2598 c0 -4 7 -8 15 -8 8 0 15 4 15 8 0 5 -7 9 -15 9 -8 0 -15
-4 -15 -9z"/>
<path d="M12515 2539 c-4 -6 -5 -12 -2 -15 2 -3 7 2 10 11 7 17 1 20 -8 4z"/>
<path d="M12654 2528 l-19 -23 23 19 c21 18 27 26 19 26 -2 0 -12 -10 -23 -22z"/>
<path d="M12560 2470 c-9 -6 -10 -10 -3 -10 6 0 15 5 18 10 8 12 4 12 -15 0z"/>
</g>
</svg>
